%TF.GenerationSoftware,KiCad,Pcbnew,(5.1.9)-1*%
%TF.CreationDate,2022-02-26T00:47:13+09:00*%
%TF.ProjectId,passivemlt,70617373-6976-4656-9d6c-742e6b696361,rev?*%
%TF.SameCoordinates,Original*%
%TF.FileFunction,Profile,NP*%
%FSLAX46Y46*%
G04 Gerber Fmt 4.6, Leading zero omitted, Abs format (unit mm)*
G04 Created by KiCad (PCBNEW (5.1.9)-1) date 2022-02-26 00:47:13*
%MOMM*%
%LPD*%
G01*
G04 APERTURE LIST*
%TA.AperFunction,Profile*%
%ADD10C,0.100000*%
%TD*%
G04 APERTURE END LIST*
D10*
X124869957Y-136766380D02*
X132262651Y-139457105D01*
X121384802Y-116556966D02*
X121681141Y-116400981D01*
X121681141Y-116400981D02*
X121979710Y-116272974D01*
X121979710Y-116272974D02*
X122279503Y-116172100D01*
X122279503Y-116172100D02*
X122579515Y-116097516D01*
X122579515Y-116097516D02*
X122878741Y-116048377D01*
X122878741Y-116048377D02*
X123176174Y-116023840D01*
X123176174Y-116023840D02*
X123470808Y-116023061D01*
X123470808Y-116023061D02*
X123761639Y-116045197D01*
X123761639Y-116045197D02*
X124047660Y-116089402D01*
X124047660Y-116089402D02*
X124327866Y-116154834D01*
X124327866Y-116154834D02*
X124601252Y-116240649D01*
X124601252Y-116240649D02*
X124866811Y-116346002D01*
X124866811Y-116346002D02*
X125123537Y-116470051D01*
X125123537Y-116470051D02*
X125370427Y-116611950D01*
X125370427Y-116611950D02*
X125606472Y-116770857D01*
X125606472Y-116770857D02*
X125830669Y-116945928D01*
X125830669Y-116945928D02*
X126042011Y-117136317D01*
X126042011Y-117136317D02*
X126239493Y-117341183D01*
X126239493Y-117341183D02*
X126422108Y-117559681D01*
X126422108Y-117559681D02*
X126588853Y-117790966D01*
X126588853Y-117790966D02*
X126738719Y-118034196D01*
X126738719Y-118034196D02*
X126870703Y-118288527D01*
X126870703Y-118288527D02*
X126983799Y-118553113D01*
X126983799Y-118553113D02*
X127077000Y-118827113D01*
X127077000Y-118827113D02*
X127149301Y-119109682D01*
X127149301Y-119109682D02*
X127199697Y-119399975D01*
X127199697Y-119399975D02*
X127227182Y-119697150D01*
X127227182Y-119697150D02*
X127230750Y-120000362D01*
X127230750Y-120000362D02*
X127209395Y-120308768D01*
X127209395Y-120308768D02*
X127162113Y-120621524D01*
X127162113Y-120621524D02*
X127087896Y-120937785D01*
X127087896Y-120937785D02*
X126985741Y-121256709D01*
X112857242Y-96803747D02*
X113184515Y-96874739D01*
X113184515Y-96874739D02*
X113495514Y-96968596D01*
X113495514Y-96968596D02*
X113790009Y-97084026D01*
X113790009Y-97084026D02*
X114067774Y-97219736D01*
X114067774Y-97219736D02*
X114328579Y-97374432D01*
X114328579Y-97374432D02*
X114572198Y-97546821D01*
X114572198Y-97546821D02*
X114798402Y-97735612D01*
X114798402Y-97735612D02*
X115006963Y-97939511D01*
X115006963Y-97939511D02*
X115197653Y-98157226D01*
X115197653Y-98157226D02*
X115370244Y-98387463D01*
X115370244Y-98387463D02*
X115524509Y-98628929D01*
X115524509Y-98628929D02*
X115660219Y-98880333D01*
X115660219Y-98880333D02*
X115777146Y-99140380D01*
X115777146Y-99140380D02*
X115875063Y-99407779D01*
X115875063Y-99407779D02*
X115953741Y-99681236D01*
X115953741Y-99681236D02*
X116012952Y-99959458D01*
X116012952Y-99959458D02*
X116052469Y-100241153D01*
X116052469Y-100241153D02*
X116072064Y-100525028D01*
X116072064Y-100525028D02*
X116071508Y-100809790D01*
X116071508Y-100809790D02*
X116050574Y-101094146D01*
X116050574Y-101094146D02*
X116009033Y-101376804D01*
X116009033Y-101376804D02*
X115946658Y-101656470D01*
X115946658Y-101656470D02*
X115863221Y-101931851D01*
X115863221Y-101931851D02*
X115758494Y-102201656D01*
X115758494Y-102201656D02*
X115632248Y-102464590D01*
X115632248Y-102464590D02*
X115484256Y-102719362D01*
X115484256Y-102719362D02*
X115314290Y-102964677D01*
X115314290Y-102964677D02*
X115122122Y-103199245D01*
X115122122Y-103199245D02*
X114907524Y-103421771D01*
X114907524Y-103421771D02*
X114670268Y-103630963D01*
X114670268Y-103630963D02*
X114410126Y-103825528D01*
X114410126Y-103825528D02*
X114126871Y-104004173D01*
X122887818Y-132515667D02*
X122833502Y-132677513D01*
X122833502Y-132677513D02*
X122787933Y-132840159D01*
X122787933Y-132840159D02*
X122750985Y-133003337D01*
X122750985Y-133003337D02*
X122722534Y-133166780D01*
X122722534Y-133166780D02*
X122702455Y-133330220D01*
X122702455Y-133330220D02*
X122690624Y-133493392D01*
X122690624Y-133493392D02*
X122686916Y-133656027D01*
X122686916Y-133656027D02*
X122691206Y-133817858D01*
X122691206Y-133817858D02*
X122703371Y-133978619D01*
X122703371Y-133978619D02*
X122723285Y-134138043D01*
X122723285Y-134138043D02*
X122750824Y-134295861D01*
X122750824Y-134295861D02*
X122785864Y-134451808D01*
X122785864Y-134451808D02*
X122828279Y-134605617D01*
X122828279Y-134605617D02*
X122877946Y-134757019D01*
X122877946Y-134757019D02*
X122934740Y-134905748D01*
X122934740Y-134905748D02*
X122998536Y-135051537D01*
X122998536Y-135051537D02*
X123069210Y-135194119D01*
X123069210Y-135194119D02*
X123146637Y-135333227D01*
X123146637Y-135333227D02*
X123230692Y-135468594D01*
X123230692Y-135468594D02*
X123321252Y-135599952D01*
X123321252Y-135599952D02*
X123418191Y-135727035D01*
X123418191Y-135727035D02*
X123521385Y-135849575D01*
X123521385Y-135849575D02*
X123630710Y-135967306D01*
X123630710Y-135967306D02*
X123746041Y-136079959D01*
X123746041Y-136079959D02*
X123867253Y-136187270D01*
X123867253Y-136187270D02*
X123994222Y-136288969D01*
X123994222Y-136288969D02*
X124126824Y-136384790D01*
X124126824Y-136384790D02*
X124264933Y-136474466D01*
X124264933Y-136474466D02*
X124408425Y-136557730D01*
X124408425Y-136557730D02*
X124557176Y-136634315D01*
X124557176Y-136634315D02*
X124711062Y-136703954D01*
X124711062Y-136703954D02*
X124869957Y-136766380D01*
X126985741Y-121256709D02*
X122887818Y-132515667D01*
X111000574Y-122552307D02*
X121384802Y-116556966D01*
X106470243Y-121338411D02*
X106559311Y-121484051D01*
X106559311Y-121484051D02*
X106654614Y-121623506D01*
X106654614Y-121623506D02*
X106755866Y-121756699D01*
X106755866Y-121756699D02*
X106862782Y-121883552D01*
X106862782Y-121883552D02*
X106975079Y-122003991D01*
X106975079Y-122003991D02*
X107092470Y-122117939D01*
X107092470Y-122117939D02*
X107214672Y-122225319D01*
X107214672Y-122225319D02*
X107341400Y-122326056D01*
X107341400Y-122326056D02*
X107472370Y-122420072D01*
X107472370Y-122420072D02*
X107607296Y-122507292D01*
X107607296Y-122507292D02*
X107745894Y-122587640D01*
X107745894Y-122587640D02*
X107887879Y-122661039D01*
X107887879Y-122661039D02*
X108032967Y-122727412D01*
X108032967Y-122727412D02*
X108180874Y-122786685D01*
X108180874Y-122786685D02*
X108331313Y-122838780D01*
X108331313Y-122838780D02*
X108484002Y-122883621D01*
X108484002Y-122883621D02*
X108638654Y-122921131D01*
X108638654Y-122921131D02*
X108794986Y-122951235D01*
X108794986Y-122951235D02*
X108952713Y-122973857D01*
X108952713Y-122973857D02*
X109111550Y-122988920D01*
X109111550Y-122988920D02*
X109271212Y-122996347D01*
X109271212Y-122996347D02*
X109431415Y-122996063D01*
X109431415Y-122996063D02*
X109591875Y-122987991D01*
X109591875Y-122987991D02*
X109752306Y-122972055D01*
X109752306Y-122972055D02*
X109912424Y-122948178D01*
X109912424Y-122948178D02*
X110071944Y-122916285D01*
X110071944Y-122916285D02*
X110230582Y-122876299D01*
X110230582Y-122876299D02*
X110388053Y-122828144D01*
X110388053Y-122828144D02*
X110544072Y-122771743D01*
X110544072Y-122771743D02*
X110698355Y-122707021D01*
X110698355Y-122707021D02*
X110850617Y-122633901D01*
X110850617Y-122633901D02*
X111000574Y-122552307D01*
X102536669Y-114525267D02*
X106470243Y-121338411D01*
X114126871Y-104004173D02*
X103750567Y-109994935D01*
X103750567Y-109994935D02*
X103604925Y-110084003D01*
X103604925Y-110084003D02*
X103465470Y-110179306D01*
X103465470Y-110179306D02*
X103332278Y-110280558D01*
X103332278Y-110280558D02*
X103205424Y-110387474D01*
X103205424Y-110387474D02*
X103084985Y-110499770D01*
X103084985Y-110499770D02*
X102971037Y-110617162D01*
X102971037Y-110617162D02*
X102863657Y-110739364D01*
X102863657Y-110739364D02*
X102762920Y-110866092D01*
X102762920Y-110866092D02*
X102668904Y-110997061D01*
X102668904Y-110997061D02*
X102581683Y-111131988D01*
X102581683Y-111131988D02*
X102501335Y-111270586D01*
X102501335Y-111270586D02*
X102427937Y-111412571D01*
X102427937Y-111412571D02*
X102361563Y-111557659D01*
X102361563Y-111557659D02*
X102302290Y-111705566D01*
X102302290Y-111705566D02*
X102250195Y-111856005D01*
X102250195Y-111856005D02*
X102205354Y-112008694D01*
X102205354Y-112008694D02*
X102167844Y-112163346D01*
X102167844Y-112163346D02*
X102137739Y-112319678D01*
X102137739Y-112319678D02*
X102115118Y-112477405D01*
X102115118Y-112477405D02*
X102100055Y-112636242D01*
X102100055Y-112636242D02*
X102092628Y-112795905D01*
X102092628Y-112795905D02*
X102092912Y-112956108D01*
X102092912Y-112956108D02*
X102100984Y-113116568D01*
X102100984Y-113116568D02*
X102116920Y-113276999D01*
X102116920Y-113276999D02*
X102140797Y-113437117D01*
X102140797Y-113437117D02*
X102172690Y-113596637D01*
X102172690Y-113596637D02*
X102212676Y-113755275D01*
X102212676Y-113755275D02*
X102260831Y-113912746D01*
X102260831Y-113912746D02*
X102317231Y-114068765D01*
X102317231Y-114068765D02*
X102381954Y-114223048D01*
X102381954Y-114223048D02*
X102455074Y-114375310D01*
X102455074Y-114375310D02*
X102536669Y-114525267D01*
X101048739Y-94721587D02*
X112857242Y-96803747D01*
X177526117Y-122530820D02*
X177676073Y-122612414D01*
X177676073Y-122612414D02*
X177828335Y-122685534D01*
X177828335Y-122685534D02*
X177982618Y-122750256D01*
X177982618Y-122750256D02*
X178138637Y-122806657D01*
X178138637Y-122806657D02*
X178296108Y-122854812D01*
X178296108Y-122854812D02*
X178454745Y-122894798D01*
X178454745Y-122894798D02*
X178614266Y-122926691D01*
X178614266Y-122926691D02*
X178774384Y-122950567D01*
X178774384Y-122950567D02*
X178934815Y-122966503D01*
X178934815Y-122966503D02*
X179095274Y-122974575D01*
X179095274Y-122974575D02*
X179255478Y-122974860D01*
X179255478Y-122974860D02*
X179415140Y-122967432D01*
X179415140Y-122967432D02*
X179573977Y-122952370D01*
X179573977Y-122952370D02*
X179731704Y-122929748D01*
X179731704Y-122929748D02*
X179888035Y-122899644D01*
X179888035Y-122899644D02*
X180042688Y-122862133D01*
X180042688Y-122862133D02*
X180195376Y-122817292D01*
X180195376Y-122817292D02*
X180345816Y-122765197D01*
X180345816Y-122765197D02*
X180493722Y-122705925D01*
X180493722Y-122705925D02*
X180638810Y-122639551D01*
X180638810Y-122639551D02*
X180780795Y-122566152D01*
X180780795Y-122566152D02*
X180919393Y-122485804D01*
X180919393Y-122485804D02*
X181054319Y-122398584D01*
X181054319Y-122398584D02*
X181185289Y-122304568D01*
X181185289Y-122304568D02*
X181312017Y-122203831D01*
X181312017Y-122203831D02*
X181434219Y-122096451D01*
X181434219Y-122096451D02*
X181551611Y-121982503D01*
X181551611Y-121982503D02*
X181663907Y-121862064D01*
X181663907Y-121862064D02*
X181770823Y-121735211D01*
X181770823Y-121735211D02*
X181872075Y-121602018D01*
X181872075Y-121602018D02*
X181967378Y-121462563D01*
X181967378Y-121462563D02*
X182056447Y-121316923D01*
X156274653Y-139448735D02*
X163667340Y-136758024D01*
X177181030Y-66989696D02*
X177287424Y-66856186D01*
X177287424Y-66856186D02*
X177385873Y-66718935D01*
X177385873Y-66718935D02*
X177476403Y-66578235D01*
X177476403Y-66578235D02*
X177559039Y-66434380D01*
X177559039Y-66434380D02*
X177633807Y-66287663D01*
X177633807Y-66287663D02*
X177700732Y-66138379D01*
X177700732Y-66138379D02*
X177759841Y-65986820D01*
X177759841Y-65986820D02*
X177811159Y-65833281D01*
X177811159Y-65833281D02*
X177854711Y-65678055D01*
X177854711Y-65678055D02*
X177890524Y-65521435D01*
X177890524Y-65521435D02*
X177918623Y-65363715D01*
X177918623Y-65363715D02*
X177939034Y-65205188D01*
X177939034Y-65205188D02*
X177951782Y-65046149D01*
X177951782Y-65046149D02*
X177956893Y-64886890D01*
X177956893Y-64886890D02*
X177954392Y-64727706D01*
X177954392Y-64727706D02*
X177944307Y-64568889D01*
X177944307Y-64568889D02*
X177926661Y-64410734D01*
X177926661Y-64410734D02*
X177901481Y-64253534D01*
X177901481Y-64253534D02*
X177868793Y-64097582D01*
X177868793Y-64097582D02*
X177828622Y-63943173D01*
X177828622Y-63943173D02*
X177780994Y-63790599D01*
X177780994Y-63790599D02*
X177725934Y-63640154D01*
X177725934Y-63640154D02*
X177663468Y-63492133D01*
X177663468Y-63492133D02*
X177593623Y-63346827D01*
X177593623Y-63346827D02*
X177516423Y-63204532D01*
X177516423Y-63204532D02*
X177431894Y-63065540D01*
X177431894Y-63065540D02*
X177340063Y-62930145D01*
X177340063Y-62930145D02*
X177240953Y-62798641D01*
X177240953Y-62798641D02*
X177134593Y-62671321D01*
X177134593Y-62671321D02*
X177021006Y-62548478D01*
X177021006Y-62548478D02*
X176900219Y-62430407D01*
X176900219Y-62430407D02*
X176772258Y-62317402D01*
X169479726Y-76167758D02*
X177181030Y-66989696D01*
X173135481Y-82499705D02*
X172803663Y-82544928D01*
X172803663Y-82544928D02*
X172479319Y-82563099D01*
X172479319Y-82563099D02*
X172163104Y-82555354D01*
X172163104Y-82555354D02*
X171855675Y-82522830D01*
X171855675Y-82522830D02*
X171557689Y-82466665D01*
X171557689Y-82466665D02*
X171269801Y-82387994D01*
X171269801Y-82387994D02*
X170992669Y-82287955D01*
X170992669Y-82287955D02*
X170726948Y-82167685D01*
X170726948Y-82167685D02*
X170473295Y-82028320D01*
X170473295Y-82028320D02*
X170232366Y-81870998D01*
X170232366Y-81870998D02*
X170004819Y-81696855D01*
X170004819Y-81696855D02*
X169791308Y-81507029D01*
X169791308Y-81507029D02*
X169592490Y-81302656D01*
X169592490Y-81302656D02*
X169409023Y-81084873D01*
X169409023Y-81084873D02*
X169241562Y-80854817D01*
X169241562Y-80854817D02*
X169090764Y-80613625D01*
X169090764Y-80613625D02*
X168957284Y-80362434D01*
X168957284Y-80362434D02*
X168841780Y-80102380D01*
X168841780Y-80102380D02*
X168744908Y-79834601D01*
X168744908Y-79834601D02*
X168667324Y-79560234D01*
X168667324Y-79560234D02*
X168609685Y-79280415D01*
X168609685Y-79280415D02*
X168572647Y-78996282D01*
X168572647Y-78996282D02*
X168556866Y-78708970D01*
X168556866Y-78708970D02*
X168562999Y-78419618D01*
X168562999Y-78419618D02*
X168591702Y-78129362D01*
X168591702Y-78129362D02*
X168643632Y-77839339D01*
X168643632Y-77839339D02*
X168719444Y-77550685D01*
X168719444Y-77550685D02*
X168819796Y-77264539D01*
X168819796Y-77264539D02*
X168945344Y-76982036D01*
X168945344Y-76982036D02*
X169096744Y-76704313D01*
X169096744Y-76704313D02*
X169274652Y-76432508D01*
X169274652Y-76432508D02*
X169479726Y-76167758D01*
X188785617Y-83107753D02*
X188751731Y-82940431D01*
X188751731Y-82940431D02*
X188709873Y-82776791D01*
X188709873Y-82776791D02*
X188660282Y-82617001D01*
X188660282Y-82617001D02*
X188603200Y-82461229D01*
X188603200Y-82461229D02*
X188538868Y-82309646D01*
X188538868Y-82309646D02*
X188467529Y-82162419D01*
X188467529Y-82162419D02*
X188389423Y-82019719D01*
X188389423Y-82019719D02*
X188304791Y-81881714D01*
X188304791Y-81881714D02*
X188213876Y-81748573D01*
X188213876Y-81748573D02*
X188116918Y-81620465D01*
X188116918Y-81620465D02*
X188014159Y-81497560D01*
X188014159Y-81497560D02*
X187905840Y-81380025D01*
X187905840Y-81380025D02*
X187792203Y-81268031D01*
X187792203Y-81268031D02*
X187673489Y-81161746D01*
X187673489Y-81161746D02*
X187549939Y-81061339D01*
X187549939Y-81061339D02*
X187421795Y-80966980D01*
X187421795Y-80966980D02*
X187289299Y-80878837D01*
X187289299Y-80878837D02*
X187152691Y-80797080D01*
X187152691Y-80797080D02*
X187012213Y-80721876D01*
X187012213Y-80721876D02*
X186868107Y-80653397D01*
X186868107Y-80653397D02*
X186720614Y-80591810D01*
X186720614Y-80591810D02*
X186569974Y-80537284D01*
X186569974Y-80537284D02*
X186416431Y-80489989D01*
X186416431Y-80489989D02*
X186260224Y-80450093D01*
X186260224Y-80450093D02*
X186101596Y-80417766D01*
X186101596Y-80417766D02*
X185940788Y-80393176D01*
X185940788Y-80393176D02*
X185778041Y-80376493D01*
X185778041Y-80376493D02*
X185613597Y-80367886D01*
X185613597Y-80367886D02*
X185447696Y-80367524D01*
X185447696Y-80367524D02*
X185280581Y-80375575D01*
X185280581Y-80375575D02*
X185112493Y-80392209D01*
X185112493Y-80392209D02*
X184943674Y-80417595D01*
X175661933Y-96777912D02*
X187461571Y-94697318D01*
X136513367Y-137474965D02*
X140614428Y-126207397D01*
X184776126Y-109973445D02*
X174392302Y-103978338D01*
X182056447Y-121316923D02*
X185990023Y-114503777D01*
X184943674Y-80417595D02*
X173135481Y-82499705D01*
X187461571Y-94697318D02*
X187628892Y-94663432D01*
X187628892Y-94663432D02*
X187792532Y-94621574D01*
X187792532Y-94621574D02*
X187952322Y-94571983D01*
X187952322Y-94571983D02*
X188108093Y-94514901D01*
X188108093Y-94514901D02*
X188259676Y-94450570D01*
X188259676Y-94450570D02*
X188406902Y-94379230D01*
X188406902Y-94379230D02*
X188549602Y-94301124D01*
X188549602Y-94301124D02*
X188687607Y-94216493D01*
X188687607Y-94216493D02*
X188820748Y-94125577D01*
X188820748Y-94125577D02*
X188948856Y-94028619D01*
X188948856Y-94028619D02*
X189071761Y-93925860D01*
X189071761Y-93925860D02*
X189189295Y-93817542D01*
X189189295Y-93817542D02*
X189301289Y-93703905D01*
X189301289Y-93703905D02*
X189407574Y-93585191D01*
X189407574Y-93585191D02*
X189507981Y-93461642D01*
X189507981Y-93461642D02*
X189602340Y-93333498D01*
X189602340Y-93333498D02*
X189690483Y-93201002D01*
X189690483Y-93201002D02*
X189772240Y-93064394D01*
X189772240Y-93064394D02*
X189847444Y-92923917D01*
X189847444Y-92923917D02*
X189915923Y-92779811D01*
X189915923Y-92779811D02*
X189977510Y-92632317D01*
X189977510Y-92632317D02*
X190032036Y-92481678D01*
X190032036Y-92481678D02*
X190079331Y-92328135D01*
X190079331Y-92328135D02*
X190119227Y-92171929D01*
X190119227Y-92171929D02*
X190151554Y-92013301D01*
X190151554Y-92013301D02*
X190176144Y-91852493D01*
X190176144Y-91852493D02*
X190192827Y-91689746D01*
X190192827Y-91689746D02*
X190201434Y-91525302D01*
X190201434Y-91525302D02*
X190201797Y-91359402D01*
X190201797Y-91359402D02*
X190193746Y-91192287D01*
X190193746Y-91192287D02*
X190177112Y-91024199D01*
X190177112Y-91024199D02*
X190151727Y-90855380D01*
X132262651Y-139457105D02*
X132424497Y-139511420D01*
X132424497Y-139511420D02*
X132587143Y-139556989D01*
X132587143Y-139556989D02*
X132750321Y-139593937D01*
X132750321Y-139593937D02*
X132913764Y-139622388D01*
X132913764Y-139622388D02*
X133077205Y-139642467D01*
X133077205Y-139642467D02*
X133240376Y-139654299D01*
X133240376Y-139654299D02*
X133403011Y-139658007D01*
X133403011Y-139658007D02*
X133564843Y-139653716D01*
X133564843Y-139653716D02*
X133725604Y-139641552D01*
X133725604Y-139641552D02*
X133885028Y-139621638D01*
X133885028Y-139621638D02*
X134042847Y-139594098D01*
X134042847Y-139594098D02*
X134198794Y-139559059D01*
X134198794Y-139559059D02*
X134352602Y-139516643D01*
X134352602Y-139516643D02*
X134504004Y-139466976D01*
X134504004Y-139466976D02*
X134652734Y-139410183D01*
X134652734Y-139410183D02*
X134798523Y-139346387D01*
X134798523Y-139346387D02*
X134941105Y-139275713D01*
X134941105Y-139275713D02*
X135080213Y-139198286D01*
X135080213Y-139198286D02*
X135215580Y-139114230D01*
X135215580Y-139114230D02*
X135346938Y-139023671D01*
X135346938Y-139023671D02*
X135474021Y-138926731D01*
X135474021Y-138926731D02*
X135596562Y-138823537D01*
X135596562Y-138823537D02*
X135714292Y-138714212D01*
X135714292Y-138714212D02*
X135826946Y-138598881D01*
X135826946Y-138598881D02*
X135934256Y-138477669D01*
X135934256Y-138477669D02*
X136035956Y-138350700D01*
X136035956Y-138350700D02*
X136131777Y-138218098D01*
X136131777Y-138218098D02*
X136221453Y-138079989D01*
X136221453Y-138079989D02*
X136304717Y-137936496D01*
X136304717Y-137936496D02*
X136381302Y-137787745D01*
X136381302Y-137787745D02*
X136450941Y-137633860D01*
X136450941Y-137633860D02*
X136513367Y-137474965D01*
X163667340Y-136758024D02*
X163826235Y-136695598D01*
X163826235Y-136695598D02*
X163980120Y-136625960D01*
X163980120Y-136625960D02*
X164128872Y-136549375D01*
X164128872Y-136549375D02*
X164272365Y-136466111D01*
X164272365Y-136466111D02*
X164410474Y-136376435D01*
X164410474Y-136376435D02*
X164543076Y-136280613D01*
X164543076Y-136280613D02*
X164670045Y-136178914D01*
X164670045Y-136178914D02*
X164791258Y-136071604D01*
X164791258Y-136071604D02*
X164906589Y-135958950D01*
X164906589Y-135958950D02*
X165015914Y-135841219D01*
X165015914Y-135841219D02*
X165119108Y-135718679D01*
X165119108Y-135718679D02*
X165216048Y-135591596D01*
X165216048Y-135591596D02*
X165306608Y-135460238D01*
X165306608Y-135460238D02*
X165390663Y-135324871D01*
X165390663Y-135324871D02*
X165468090Y-135185763D01*
X165468090Y-135185763D02*
X165538764Y-135043181D01*
X165538764Y-135043181D02*
X165602560Y-134897391D01*
X165602560Y-134897391D02*
X165659354Y-134748662D01*
X165659354Y-134748662D02*
X165709021Y-134597259D01*
X165709021Y-134597259D02*
X165751437Y-134443451D01*
X165751437Y-134443451D02*
X165786477Y-134287504D01*
X165786477Y-134287504D02*
X165814016Y-134129685D01*
X165814016Y-134129685D02*
X165833930Y-133970261D01*
X165833930Y-133970261D02*
X165846095Y-133809500D01*
X165846095Y-133809500D02*
X165850385Y-133647668D01*
X165850385Y-133647668D02*
X165846677Y-133485033D01*
X165846677Y-133485033D02*
X165834846Y-133321861D01*
X165834846Y-133321861D02*
X165814767Y-133158421D01*
X165814767Y-133158421D02*
X165786315Y-132994978D01*
X165786315Y-132994978D02*
X165749367Y-132831800D01*
X165749367Y-132831800D02*
X165703798Y-132669154D01*
X165703798Y-132669154D02*
X165649483Y-132507307D01*
X140614428Y-126207397D02*
X140741172Y-125897422D01*
X140741172Y-125897422D02*
X140887608Y-125607447D01*
X140887608Y-125607447D02*
X141052422Y-125337469D01*
X141052422Y-125337469D02*
X141234303Y-125087490D01*
X141234303Y-125087490D02*
X141431937Y-124857509D01*
X141431937Y-124857509D02*
X141644012Y-124647527D01*
X141644012Y-124647527D02*
X141869215Y-124457543D01*
X141869215Y-124457543D02*
X142106232Y-124287557D01*
X142106232Y-124287557D02*
X142353752Y-124137570D01*
X142353752Y-124137570D02*
X142610461Y-124007581D01*
X142610461Y-124007581D02*
X142875047Y-123897590D01*
X142875047Y-123897590D02*
X143146197Y-123807597D01*
X143146197Y-123807597D02*
X143422598Y-123737603D01*
X143422598Y-123737603D02*
X143702937Y-123687608D01*
X143702937Y-123687608D02*
X143985902Y-123657610D01*
X143985902Y-123657610D02*
X144270180Y-123647611D01*
X144270180Y-123647611D02*
X144554457Y-123657610D01*
X144554457Y-123657610D02*
X144837422Y-123687608D01*
X144837422Y-123687608D02*
X145117762Y-123737604D01*
X145117762Y-123737604D02*
X145394162Y-123807598D01*
X145394162Y-123807598D02*
X145665312Y-123897590D01*
X145665312Y-123897590D02*
X145929898Y-124007581D01*
X145929898Y-124007581D02*
X146186607Y-124137570D01*
X146186607Y-124137570D02*
X146434127Y-124287558D01*
X146434127Y-124287558D02*
X146671145Y-124457544D01*
X146671145Y-124457544D02*
X146896347Y-124647528D01*
X146896347Y-124647528D02*
X147108422Y-124857510D01*
X147108422Y-124857510D02*
X147306056Y-125087491D01*
X147306056Y-125087491D02*
X147487937Y-125337470D01*
X147487937Y-125337470D02*
X147652752Y-125607448D01*
X147652752Y-125607448D02*
X147799187Y-125897423D01*
X147799187Y-125897423D02*
X147925932Y-126207398D01*
X174392302Y-103978338D02*
X174109046Y-103799692D01*
X174109046Y-103799692D02*
X173848904Y-103605127D01*
X173848904Y-103605127D02*
X173611648Y-103395936D01*
X173611648Y-103395936D02*
X173397050Y-103173409D01*
X173397050Y-103173409D02*
X173204882Y-102938842D01*
X173204882Y-102938842D02*
X173034916Y-102693526D01*
X173034916Y-102693526D02*
X172886925Y-102438754D01*
X172886925Y-102438754D02*
X172760679Y-102175820D01*
X172760679Y-102175820D02*
X172655952Y-101906016D01*
X172655952Y-101906016D02*
X172572515Y-101630634D01*
X172572515Y-101630634D02*
X172510140Y-101350968D01*
X172510140Y-101350968D02*
X172468599Y-101068310D01*
X172468599Y-101068310D02*
X172447665Y-100783954D01*
X172447665Y-100783954D02*
X172447109Y-100499192D01*
X172447109Y-100499192D02*
X172466704Y-100215317D01*
X172466704Y-100215317D02*
X172506221Y-99933622D01*
X172506221Y-99933622D02*
X172565433Y-99655400D01*
X172565433Y-99655400D02*
X172644111Y-99381943D01*
X172644111Y-99381943D02*
X172742028Y-99114544D01*
X172742028Y-99114544D02*
X172858955Y-98854497D01*
X172858955Y-98854497D02*
X172994665Y-98603094D01*
X172994665Y-98603094D02*
X173148930Y-98361627D01*
X173148930Y-98361627D02*
X173321521Y-98131390D01*
X173321521Y-98131390D02*
X173512211Y-97913676D01*
X173512211Y-97913676D02*
X173720772Y-97709777D01*
X173720772Y-97709777D02*
X173946976Y-97520986D01*
X173946976Y-97520986D02*
X174190595Y-97348596D01*
X174190595Y-97348596D02*
X174451400Y-97193900D01*
X174451400Y-97193900D02*
X174729165Y-97058191D01*
X174729165Y-97058191D02*
X175023660Y-96942761D01*
X175023660Y-96942761D02*
X175334659Y-96848904D01*
X175334659Y-96848904D02*
X175661933Y-96777912D01*
X161548324Y-121239487D02*
X161446167Y-120920563D01*
X161446167Y-120920563D02*
X161371951Y-120604302D01*
X161371951Y-120604302D02*
X161324668Y-120291546D01*
X161324668Y-120291546D02*
X161303313Y-119983140D01*
X161303313Y-119983140D02*
X161306881Y-119679928D01*
X161306881Y-119679928D02*
X161334365Y-119382753D01*
X161334365Y-119382753D02*
X161384761Y-119092459D01*
X161384761Y-119092459D02*
X161457062Y-118809891D01*
X161457062Y-118809891D02*
X161550263Y-118535891D01*
X161550263Y-118535891D02*
X161663358Y-118271304D01*
X161663358Y-118271304D02*
X161795342Y-118016973D01*
X161795342Y-118016973D02*
X161945209Y-117773743D01*
X161945209Y-117773743D02*
X162111953Y-117542457D01*
X162111953Y-117542457D02*
X162294568Y-117323960D01*
X162294568Y-117323960D02*
X162492050Y-117119094D01*
X162492050Y-117119094D02*
X162703392Y-116928704D01*
X162703392Y-116928704D02*
X162927589Y-116753633D01*
X162927589Y-116753633D02*
X163163634Y-116594726D01*
X163163634Y-116594726D02*
X163410523Y-116452827D01*
X163410523Y-116452827D02*
X163667250Y-116328778D01*
X163667250Y-116328778D02*
X163932809Y-116223424D01*
X163932809Y-116223424D02*
X164206194Y-116137610D01*
X164206194Y-116137610D02*
X164486400Y-116072177D01*
X164486400Y-116072177D02*
X164772422Y-116027972D01*
X164772422Y-116027972D02*
X165063252Y-116005836D01*
X165063252Y-116005836D02*
X165357887Y-116006615D01*
X165357887Y-116006615D02*
X165655320Y-116031152D01*
X165655320Y-116031152D02*
X165954545Y-116080290D01*
X165954545Y-116080290D02*
X166254558Y-116154874D01*
X166254558Y-116154874D02*
X166554351Y-116255748D01*
X166554351Y-116255748D02*
X166852920Y-116383755D01*
X166852920Y-116383755D02*
X167149260Y-116539740D01*
X165649483Y-132507307D02*
X161548324Y-121239487D01*
X147925932Y-126207398D02*
X152023941Y-137466592D01*
X190151727Y-90855380D02*
X188785617Y-83107753D01*
X152023941Y-137466592D02*
X152086366Y-137625486D01*
X152086366Y-137625486D02*
X152156004Y-137779372D01*
X152156004Y-137779372D02*
X152232589Y-137928123D01*
X152232589Y-137928123D02*
X152315853Y-138071616D01*
X152315853Y-138071616D02*
X152405530Y-138209725D01*
X152405530Y-138209725D02*
X152501351Y-138342326D01*
X152501351Y-138342326D02*
X152603050Y-138469295D01*
X152603050Y-138469295D02*
X152710360Y-138590508D01*
X152710360Y-138590508D02*
X152823014Y-138705839D01*
X152823014Y-138705839D02*
X152940744Y-138815164D01*
X152940744Y-138815164D02*
X153063284Y-138918358D01*
X153063284Y-138918358D02*
X153190367Y-139015297D01*
X153190367Y-139015297D02*
X153321725Y-139105857D01*
X153321725Y-139105857D02*
X153457092Y-139189913D01*
X153457092Y-139189913D02*
X153596200Y-139267340D01*
X153596200Y-139267340D02*
X153738782Y-139338014D01*
X153738782Y-139338014D02*
X153884571Y-139401810D01*
X153884571Y-139401810D02*
X154033300Y-139458604D01*
X154033300Y-139458604D02*
X154184703Y-139508271D01*
X154184703Y-139508271D02*
X154338511Y-139550686D01*
X154338511Y-139550686D02*
X154494458Y-139585726D01*
X154494458Y-139585726D02*
X154652276Y-139613265D01*
X154652276Y-139613265D02*
X154811700Y-139633180D01*
X154811700Y-139633180D02*
X154972461Y-139645344D01*
X154972461Y-139645344D02*
X155134292Y-139649635D01*
X155134292Y-139649635D02*
X155296927Y-139645927D01*
X155296927Y-139645927D02*
X155460099Y-139634096D01*
X155460099Y-139634096D02*
X155623539Y-139614017D01*
X155623539Y-139614017D02*
X155786982Y-139585566D01*
X155786982Y-139585566D02*
X155950160Y-139548619D01*
X155950160Y-139548619D02*
X156112806Y-139503049D01*
X156112806Y-139503049D02*
X156274653Y-139448735D01*
X185990023Y-114503777D02*
X186071617Y-114353820D01*
X186071617Y-114353820D02*
X186144737Y-114201558D01*
X186144737Y-114201558D02*
X186209459Y-114047275D01*
X186209459Y-114047275D02*
X186265860Y-113891256D01*
X186265860Y-113891256D02*
X186314015Y-113733785D01*
X186314015Y-113733785D02*
X186354001Y-113575147D01*
X186354001Y-113575147D02*
X186385894Y-113415627D01*
X186385894Y-113415627D02*
X186409770Y-113255509D01*
X186409770Y-113255509D02*
X186425707Y-113095078D01*
X186425707Y-113095078D02*
X186433779Y-112934618D01*
X186433779Y-112934618D02*
X186434063Y-112774415D01*
X186434063Y-112774415D02*
X186426636Y-112614752D01*
X186426636Y-112614752D02*
X186411573Y-112455915D01*
X186411573Y-112455915D02*
X186388951Y-112298189D01*
X186388951Y-112298189D02*
X186358847Y-112141857D01*
X186358847Y-112141857D02*
X186321336Y-111987204D01*
X186321336Y-111987204D02*
X186276495Y-111834516D01*
X186276495Y-111834516D02*
X186224401Y-111684076D01*
X186224401Y-111684076D02*
X186165128Y-111536170D01*
X186165128Y-111536170D02*
X186098754Y-111391082D01*
X186098754Y-111391082D02*
X186025356Y-111249096D01*
X186025356Y-111249096D02*
X185945008Y-111110498D01*
X185945008Y-111110498D02*
X185857788Y-110975572D01*
X185857788Y-110975572D02*
X185763771Y-110844602D01*
X185763771Y-110844602D02*
X185663035Y-110717874D01*
X185663035Y-110717874D02*
X185555654Y-110595672D01*
X185555654Y-110595672D02*
X185441707Y-110478281D01*
X185441707Y-110478281D02*
X185321268Y-110365984D01*
X185321268Y-110365984D02*
X185194414Y-110259068D01*
X185194414Y-110259068D02*
X185061221Y-110157816D01*
X185061221Y-110157816D02*
X184921766Y-110062513D01*
X184921766Y-110062513D02*
X184776126Y-109973445D01*
X167149260Y-116539740D02*
X177526117Y-122530820D01*
X115366157Y-82522451D02*
X103566645Y-80441879D01*
X151494224Y-64355338D02*
X151494224Y-52371704D01*
X136994226Y-52371704D02*
X136994226Y-64362375D01*
X170745689Y-57260502D02*
X170612179Y-57154107D01*
X170612179Y-57154107D02*
X170474928Y-57055657D01*
X170474928Y-57055657D02*
X170334228Y-56965127D01*
X170334228Y-56965127D02*
X170190372Y-56882491D01*
X170190372Y-56882491D02*
X170043656Y-56807723D01*
X170043656Y-56807723D02*
X169894372Y-56740797D01*
X169894372Y-56740797D02*
X169742813Y-56681688D01*
X169742813Y-56681688D02*
X169589274Y-56630370D01*
X169589274Y-56630370D02*
X169434047Y-56586818D01*
X169434047Y-56586818D02*
X169277427Y-56551005D01*
X169277427Y-56551005D02*
X169119707Y-56522906D01*
X169119707Y-56522906D02*
X168961180Y-56502495D01*
X168961180Y-56502495D02*
X168802141Y-56489747D01*
X168802141Y-56489747D02*
X168642882Y-56484636D01*
X168642882Y-56484636D02*
X168483697Y-56487136D01*
X168483697Y-56487136D02*
X168324881Y-56497222D01*
X168324881Y-56497222D02*
X168166725Y-56514868D01*
X168166725Y-56514868D02*
X168009525Y-56540047D01*
X168009525Y-56540047D02*
X167853573Y-56572736D01*
X167853573Y-56572736D02*
X167699163Y-56612907D01*
X167699163Y-56612907D02*
X167546589Y-56660535D01*
X167546589Y-56660535D02*
X167396145Y-56715595D01*
X167396145Y-56715595D02*
X167248123Y-56778060D01*
X167248123Y-56778060D02*
X167102817Y-56847906D01*
X167102817Y-56847906D02*
X166960522Y-56925106D01*
X166960522Y-56925106D02*
X166821529Y-57009635D01*
X166821529Y-57009635D02*
X166686134Y-57101467D01*
X166686134Y-57101467D02*
X166554630Y-57200576D01*
X166554630Y-57200576D02*
X166427310Y-57306937D01*
X166427310Y-57306937D02*
X166304468Y-57420524D01*
X166304468Y-57420524D02*
X166186397Y-57541311D01*
X166186397Y-57541311D02*
X166073391Y-57669273D01*
X98358584Y-90879642D02*
X98333198Y-91048461D01*
X98333198Y-91048461D02*
X98316564Y-91216549D01*
X98316564Y-91216549D02*
X98308512Y-91383664D01*
X98308512Y-91383664D02*
X98308875Y-91549565D01*
X98308875Y-91549565D02*
X98317482Y-91714009D01*
X98317482Y-91714009D02*
X98334165Y-91876756D01*
X98334165Y-91876756D02*
X98358754Y-92037564D01*
X98358754Y-92037564D02*
X98391081Y-92196192D01*
X98391081Y-92196192D02*
X98430977Y-92352399D01*
X98430977Y-92352399D02*
X98478272Y-92505942D01*
X98478272Y-92505942D02*
X98532797Y-92656582D01*
X98532797Y-92656582D02*
X98594385Y-92804075D01*
X98594385Y-92804075D02*
X98662864Y-92948181D01*
X98662864Y-92948181D02*
X98738067Y-93088659D01*
X98738067Y-93088659D02*
X98819825Y-93225267D01*
X98819825Y-93225267D02*
X98907968Y-93357764D01*
X98907968Y-93357764D02*
X99002327Y-93485907D01*
X99002327Y-93485907D02*
X99102733Y-93609457D01*
X99102733Y-93609457D02*
X99209018Y-93728171D01*
X99209018Y-93728171D02*
X99321012Y-93841808D01*
X99321012Y-93841808D02*
X99438547Y-93950127D01*
X99438547Y-93950127D02*
X99561452Y-94052886D01*
X99561452Y-94052886D02*
X99689560Y-94149844D01*
X99689560Y-94149844D02*
X99822701Y-94240760D01*
X99822701Y-94240760D02*
X99960706Y-94325391D01*
X99960706Y-94325391D02*
X100103406Y-94403498D01*
X100103406Y-94403498D02*
X100250632Y-94474838D01*
X100250632Y-94474838D02*
X100402215Y-94539169D01*
X100402215Y-94539169D02*
X100557987Y-94596251D01*
X100557987Y-94596251D02*
X100717777Y-94645842D01*
X100717777Y-94645842D02*
X100881417Y-94687701D01*
X100881417Y-94687701D02*
X101048739Y-94721587D01*
X117749780Y-57275898D02*
X111723211Y-62332798D01*
X99724705Y-83132032D02*
X98358584Y-90879642D01*
X103566645Y-80441879D02*
X103397825Y-80416493D01*
X103397825Y-80416493D02*
X103229737Y-80399859D01*
X103229737Y-80399859D02*
X103062622Y-80391808D01*
X103062622Y-80391808D02*
X102896722Y-80392171D01*
X102896722Y-80392171D02*
X102732278Y-80400778D01*
X102732278Y-80400778D02*
X102569531Y-80417461D01*
X102569531Y-80417461D02*
X102408723Y-80442050D01*
X102408723Y-80442050D02*
X102250096Y-80474377D01*
X102250096Y-80474377D02*
X102093889Y-80514273D01*
X102093889Y-80514273D02*
X101940346Y-80561568D01*
X101940346Y-80561568D02*
X101789707Y-80616094D01*
X101789707Y-80616094D02*
X101642214Y-80677681D01*
X101642214Y-80677681D02*
X101498108Y-80746161D01*
X101498108Y-80746161D02*
X101357630Y-80821364D01*
X101357630Y-80821364D02*
X101221022Y-80903121D01*
X101221022Y-80903121D02*
X101088526Y-80991264D01*
X101088526Y-80991264D02*
X100960383Y-81085623D01*
X100960383Y-81085623D02*
X100836833Y-81186029D01*
X100836833Y-81186029D02*
X100718119Y-81292314D01*
X100718119Y-81292314D02*
X100604482Y-81404308D01*
X100604482Y-81404308D02*
X100496163Y-81521842D01*
X100496163Y-81521842D02*
X100393404Y-81644748D01*
X100393404Y-81644748D02*
X100296446Y-81772855D01*
X100296446Y-81772855D02*
X100205531Y-81905996D01*
X100205531Y-81905996D02*
X100120899Y-82044001D01*
X100120899Y-82044001D02*
X100042793Y-82186701D01*
X100042793Y-82186701D02*
X99971453Y-82333927D01*
X99971453Y-82333927D02*
X99907122Y-82485510D01*
X99907122Y-82485510D02*
X99850040Y-82641281D01*
X99850040Y-82641281D02*
X99800449Y-82801071D01*
X99800449Y-82801071D02*
X99758590Y-82964711D01*
X99758590Y-82964711D02*
X99724705Y-83132032D01*
X140310659Y-49055271D02*
X140139995Y-49059586D01*
X140139995Y-49059586D02*
X139971573Y-49072393D01*
X139971573Y-49072393D02*
X139805599Y-49093483D01*
X139805599Y-49093483D02*
X139642282Y-49122649D01*
X139642282Y-49122649D02*
X139481830Y-49159681D01*
X139481830Y-49159681D02*
X139324453Y-49204371D01*
X139324453Y-49204371D02*
X139170358Y-49256511D01*
X139170358Y-49256511D02*
X139019753Y-49315892D01*
X139019753Y-49315892D02*
X138872848Y-49382307D01*
X138872848Y-49382307D02*
X138729850Y-49455546D01*
X138729850Y-49455546D02*
X138590968Y-49535402D01*
X138590968Y-49535402D02*
X138456409Y-49621665D01*
X138456409Y-49621665D02*
X138326384Y-49714128D01*
X138326384Y-49714128D02*
X138201099Y-49812583D01*
X138201099Y-49812583D02*
X138080764Y-49916820D01*
X138080764Y-49916820D02*
X137965586Y-50026631D01*
X137965586Y-50026631D02*
X137855775Y-50141809D01*
X137855775Y-50141809D02*
X137751538Y-50262144D01*
X137751538Y-50262144D02*
X137653083Y-50387429D01*
X137653083Y-50387429D02*
X137560620Y-50517454D01*
X137560620Y-50517454D02*
X137474357Y-50652013D01*
X137474357Y-50652013D02*
X137394501Y-50790895D01*
X137394501Y-50790895D02*
X137321262Y-50933893D01*
X137321262Y-50933893D02*
X137254847Y-51080798D01*
X137254847Y-51080798D02*
X137195466Y-51231403D01*
X137195466Y-51231403D02*
X137143326Y-51385498D01*
X137143326Y-51385498D02*
X137098636Y-51542875D01*
X137098636Y-51542875D02*
X137061604Y-51703327D01*
X137061604Y-51703327D02*
X137032438Y-51866644D01*
X137032438Y-51866644D02*
X137011348Y-52032618D01*
X137011348Y-52032618D02*
X136998541Y-52201040D01*
X136998541Y-52201040D02*
X136994226Y-52371704D01*
X111723211Y-62332798D02*
X111595249Y-62445803D01*
X111595249Y-62445803D02*
X111474462Y-62563874D01*
X111474462Y-62563874D02*
X111360875Y-62686716D01*
X111360875Y-62686716D02*
X111254515Y-62814036D01*
X111254515Y-62814036D02*
X111155406Y-62945540D01*
X111155406Y-62945540D02*
X111063574Y-63080935D01*
X111063574Y-63080935D02*
X110979046Y-63219927D01*
X110979046Y-63219927D02*
X110901846Y-63362223D01*
X110901846Y-63362223D02*
X110832000Y-63507528D01*
X110832000Y-63507528D02*
X110769535Y-63655550D01*
X110769535Y-63655550D02*
X110714475Y-63805994D01*
X110714475Y-63805994D02*
X110666847Y-63958568D01*
X110666847Y-63958568D02*
X110626676Y-64112978D01*
X110626676Y-64112978D02*
X110593987Y-64268930D01*
X110593987Y-64268930D02*
X110568807Y-64426130D01*
X110568807Y-64426130D02*
X110551162Y-64584285D01*
X110551162Y-64584285D02*
X110541076Y-64743101D01*
X110541076Y-64743101D02*
X110538576Y-64902286D01*
X110538576Y-64902286D02*
X110543687Y-65061544D01*
X110543687Y-65061544D02*
X110556435Y-65220584D01*
X110556435Y-65220584D02*
X110576845Y-65379110D01*
X110576845Y-65379110D02*
X110604944Y-65536830D01*
X110604944Y-65536830D02*
X110640757Y-65693450D01*
X110640757Y-65693450D02*
X110684309Y-65848677D01*
X110684309Y-65848677D02*
X110735627Y-66002216D01*
X110735627Y-66002216D02*
X110794736Y-66153775D01*
X110794736Y-66153775D02*
X110861661Y-66303059D01*
X110861661Y-66303059D02*
X110936429Y-66449776D01*
X110936429Y-66449776D02*
X111019065Y-66593631D01*
X111019065Y-66593631D02*
X111109595Y-66734331D01*
X111109595Y-66734331D02*
X111208044Y-66871582D01*
X111208044Y-66871582D02*
X111314439Y-67005092D01*
X122422078Y-57684670D02*
X122309072Y-57556708D01*
X122309072Y-57556708D02*
X122191001Y-57435920D01*
X122191001Y-57435920D02*
X122068158Y-57322333D01*
X122068158Y-57322333D02*
X121940838Y-57215973D01*
X121940838Y-57215973D02*
X121809334Y-57116863D01*
X121809334Y-57116863D02*
X121673939Y-57025031D01*
X121673939Y-57025031D02*
X121534947Y-56940503D01*
X121534947Y-56940503D02*
X121392651Y-56863302D01*
X121392651Y-56863302D02*
X121247346Y-56793457D01*
X121247346Y-56793457D02*
X121099324Y-56730991D01*
X121099324Y-56730991D02*
X120948879Y-56675931D01*
X120948879Y-56675931D02*
X120796305Y-56628303D01*
X120796305Y-56628303D02*
X120641895Y-56588132D01*
X120641895Y-56588132D02*
X120485943Y-56555444D01*
X120485943Y-56555444D02*
X120328743Y-56530264D01*
X120328743Y-56530264D02*
X120170588Y-56512618D01*
X120170588Y-56512618D02*
X120011771Y-56502532D01*
X120011771Y-56502532D02*
X119852586Y-56500032D01*
X119852586Y-56500032D02*
X119693328Y-56505143D01*
X119693328Y-56505143D02*
X119534288Y-56517891D01*
X119534288Y-56517891D02*
X119375762Y-56538302D01*
X119375762Y-56538302D02*
X119218041Y-56566401D01*
X119218041Y-56566401D02*
X119061421Y-56602214D01*
X119061421Y-56602214D02*
X118906195Y-56645766D01*
X118906195Y-56645766D02*
X118752655Y-56697084D01*
X118752655Y-56697084D02*
X118601096Y-56756193D01*
X118601096Y-56756193D02*
X118451812Y-56823119D01*
X118451812Y-56823119D02*
X118305096Y-56897887D01*
X118305096Y-56897887D02*
X118161240Y-56980523D01*
X118161240Y-56980523D02*
X118020540Y-57071053D01*
X118020540Y-57071053D02*
X117883289Y-57169503D01*
X117883289Y-57169503D02*
X117749780Y-57275898D01*
X136994226Y-64362375D02*
X136981142Y-64697004D01*
X136981142Y-64697004D02*
X136942715Y-65019576D01*
X136942715Y-65019576D02*
X136880178Y-65329641D01*
X136880178Y-65329641D02*
X136794763Y-65626752D01*
X136794763Y-65626752D02*
X136687706Y-65910458D01*
X136687706Y-65910458D02*
X136560239Y-66180310D01*
X136560239Y-66180310D02*
X136413596Y-66435861D01*
X136413596Y-66435861D02*
X136249011Y-66676660D01*
X136249011Y-66676660D02*
X136067717Y-66902259D01*
X136067717Y-66902259D02*
X135870949Y-67112208D01*
X135870949Y-67112208D02*
X135659938Y-67306059D01*
X135659938Y-67306059D02*
X135435920Y-67483363D01*
X135435920Y-67483363D02*
X135200127Y-67643671D01*
X135200127Y-67643671D02*
X134953794Y-67786533D01*
X134953794Y-67786533D02*
X134698154Y-67911502D01*
X134698154Y-67911502D02*
X134434440Y-68018126D01*
X134434440Y-68018126D02*
X134163887Y-68105959D01*
X134163887Y-68105959D02*
X133887727Y-68174550D01*
X133887727Y-68174550D02*
X133607195Y-68223451D01*
X133607195Y-68223451D02*
X133323523Y-68252213D01*
X133323523Y-68252213D02*
X133037947Y-68260386D01*
X133037947Y-68260386D02*
X132751698Y-68247523D01*
X132751698Y-68247523D02*
X132466011Y-68213173D01*
X132466011Y-68213173D02*
X132182120Y-68156887D01*
X132182120Y-68156887D02*
X131901258Y-68078218D01*
X131901258Y-68078218D02*
X131624658Y-67976715D01*
X131624658Y-67976715D02*
X131353555Y-67851930D01*
X131353555Y-67851930D02*
X131089182Y-67703414D01*
X131089182Y-67703414D02*
X130832772Y-67530717D01*
X130832772Y-67530717D02*
X130585559Y-67333392D01*
X130585559Y-67333392D02*
X130348776Y-67110988D01*
X130348776Y-67110988D02*
X130123659Y-66863057D01*
X158364790Y-66856021D02*
X158139672Y-67103952D01*
X158139672Y-67103952D02*
X157902889Y-67326355D01*
X157902889Y-67326355D02*
X157655676Y-67523681D01*
X157655676Y-67523681D02*
X157399267Y-67696378D01*
X157399267Y-67696378D02*
X157134893Y-67844894D01*
X157134893Y-67844894D02*
X156863790Y-67969679D01*
X156863790Y-67969679D02*
X156587190Y-68071181D01*
X156587190Y-68071181D02*
X156306328Y-68149851D01*
X156306328Y-68149851D02*
X156022437Y-68206136D01*
X156022437Y-68206136D02*
X155736750Y-68240486D01*
X155736750Y-68240486D02*
X155450502Y-68253350D01*
X155450502Y-68253350D02*
X155164925Y-68245176D01*
X155164925Y-68245176D02*
X154881254Y-68216415D01*
X154881254Y-68216415D02*
X154600721Y-68167514D01*
X154600721Y-68167514D02*
X154324562Y-68098922D01*
X154324562Y-68098922D02*
X154054008Y-68011090D01*
X154054008Y-68011090D02*
X153790295Y-67904465D01*
X153790295Y-67904465D02*
X153534654Y-67779497D01*
X153534654Y-67779497D02*
X153288321Y-67636635D01*
X153288321Y-67636635D02*
X153052529Y-67476327D01*
X153052529Y-67476327D02*
X152828511Y-67299023D01*
X152828511Y-67299023D02*
X152617500Y-67105172D01*
X152617500Y-67105172D02*
X152420731Y-66895222D01*
X152420731Y-66895222D02*
X152239438Y-66669623D01*
X152239438Y-66669623D02*
X152074853Y-66428824D01*
X152074853Y-66428824D02*
X151928210Y-66173274D01*
X151928210Y-66173274D02*
X151800743Y-65903421D01*
X151800743Y-65903421D02*
X151693686Y-65619715D01*
X151693686Y-65619715D02*
X151608271Y-65322605D01*
X151608271Y-65322605D02*
X151545734Y-65012539D01*
X151545734Y-65012539D02*
X151507307Y-64689967D01*
X151507307Y-64689967D02*
X151494224Y-64355338D01*
X111314439Y-67005092D02*
X119021910Y-76190504D01*
X176772258Y-62317402D02*
X170745689Y-57260502D01*
X130123659Y-66863057D02*
X122422078Y-57684670D01*
X166073391Y-57669273D02*
X158364790Y-66856021D01*
X151494224Y-52371704D02*
X151489908Y-52201040D01*
X151489908Y-52201040D02*
X151477101Y-52032618D01*
X151477101Y-52032618D02*
X151456011Y-51866644D01*
X151456011Y-51866644D02*
X151426845Y-51703327D01*
X151426845Y-51703327D02*
X151389813Y-51542875D01*
X151389813Y-51542875D02*
X151345123Y-51385498D01*
X151345123Y-51385498D02*
X151292983Y-51231403D01*
X151292983Y-51231403D02*
X151233602Y-51080798D01*
X151233602Y-51080798D02*
X151167187Y-50933893D01*
X151167187Y-50933893D02*
X151093948Y-50790895D01*
X151093948Y-50790895D02*
X151014092Y-50652013D01*
X151014092Y-50652013D02*
X150927829Y-50517454D01*
X150927829Y-50517454D02*
X150835366Y-50387429D01*
X150835366Y-50387429D02*
X150736911Y-50262144D01*
X150736911Y-50262144D02*
X150632674Y-50141809D01*
X150632674Y-50141809D02*
X150522863Y-50026631D01*
X150522863Y-50026631D02*
X150407685Y-49916820D01*
X150407685Y-49916820D02*
X150287350Y-49812583D01*
X150287350Y-49812583D02*
X150162065Y-49714128D01*
X150162065Y-49714128D02*
X150032040Y-49621665D01*
X150032040Y-49621665D02*
X149897481Y-49535402D01*
X149897481Y-49535402D02*
X149758599Y-49455546D01*
X149758599Y-49455546D02*
X149615601Y-49382307D01*
X149615601Y-49382307D02*
X149468696Y-49315892D01*
X149468696Y-49315892D02*
X149318091Y-49256511D01*
X149318091Y-49256511D02*
X149163996Y-49204371D01*
X149163996Y-49204371D02*
X149006619Y-49159681D01*
X149006619Y-49159681D02*
X148846167Y-49122649D01*
X148846167Y-49122649D02*
X148682850Y-49093483D01*
X148682850Y-49093483D02*
X148516876Y-49072393D01*
X148516876Y-49072393D02*
X148348454Y-49059586D01*
X148348454Y-49059586D02*
X148177791Y-49055271D01*
X119021910Y-76190504D02*
X119226983Y-76455254D01*
X119226983Y-76455254D02*
X119404891Y-76727059D01*
X119404891Y-76727059D02*
X119556291Y-77004781D01*
X119556291Y-77004781D02*
X119681838Y-77287284D01*
X119681838Y-77287284D02*
X119782190Y-77573431D01*
X119782190Y-77573431D02*
X119858003Y-77862084D01*
X119858003Y-77862084D02*
X119909932Y-78152107D01*
X119909932Y-78152107D02*
X119938636Y-78442363D01*
X119938636Y-78442363D02*
X119944769Y-78731715D01*
X119944769Y-78731715D02*
X119928988Y-79019027D01*
X119928988Y-79019027D02*
X119891950Y-79303160D01*
X119891950Y-79303160D02*
X119834310Y-79582979D01*
X119834310Y-79582979D02*
X119756727Y-79857346D01*
X119756727Y-79857346D02*
X119659855Y-80125125D01*
X119659855Y-80125125D02*
X119544351Y-80385178D01*
X119544351Y-80385178D02*
X119410871Y-80636370D01*
X119410871Y-80636370D02*
X119260073Y-80877562D01*
X119260073Y-80877562D02*
X119092612Y-81107618D01*
X119092612Y-81107618D02*
X118909145Y-81325401D01*
X118909145Y-81325401D02*
X118710328Y-81529774D01*
X118710328Y-81529774D02*
X118496817Y-81719600D01*
X118496817Y-81719600D02*
X118269269Y-81893743D01*
X118269269Y-81893743D02*
X118028341Y-82051065D01*
X118028341Y-82051065D02*
X117774688Y-82190430D01*
X117774688Y-82190430D02*
X117508967Y-82310700D01*
X117508967Y-82310700D02*
X117231835Y-82410739D01*
X117231835Y-82410739D02*
X116943947Y-82489410D01*
X116943947Y-82489410D02*
X116645961Y-82545576D01*
X116645961Y-82545576D02*
X116338533Y-82578100D01*
X116338533Y-82578100D02*
X116022318Y-82585845D01*
X116022318Y-82585845D02*
X115697974Y-82567674D01*
X115697974Y-82567674D02*
X115366157Y-82522451D01*
X148177791Y-49055271D02*
X140310659Y-49055271D01*
X145790000Y-73030000D02*
G75*
G03*
X145790000Y-73030000I-1600000J0D01*
G01*
M02*
