%TF.GenerationSoftware,KiCad,Pcbnew,(5.1.9)-1*%
%TF.CreationDate,2022-02-26T00:47:13+09:00*%
%TF.ProjectId,passivemlt,70617373-6976-4656-9d6c-742e6b696361,rev?*%
%TF.SameCoordinates,Original*%
%TF.FileFunction,Legend,Bot*%
%TF.FilePolarity,Positive*%
%FSLAX46Y46*%
G04 Gerber Fmt 4.6, Leading zero omitted, Abs format (unit mm)*
G04 Created by KiCad (PCBNEW (5.1.9)-1) date 2022-02-26 00:47:13*
%MOMM*%
%LPD*%
G01*
G04 APERTURE LIST*
%ADD10C,0.150000*%
%ADD11C,0.010000*%
G04 APERTURE END LIST*
D10*
X165340952Y-97617619D02*
X165293333Y-97570000D01*
X165198095Y-97522380D01*
X164960000Y-97522380D01*
X164864761Y-97570000D01*
X164817142Y-97617619D01*
X164769523Y-97712857D01*
X164769523Y-97808095D01*
X164817142Y-97950952D01*
X165388571Y-98522380D01*
X164769523Y-98522380D01*
X164150476Y-97522380D02*
X164055238Y-97522380D01*
X163960000Y-97570000D01*
X163912380Y-97617619D01*
X163864761Y-97712857D01*
X163817142Y-97903333D01*
X163817142Y-98141428D01*
X163864761Y-98331904D01*
X163912380Y-98427142D01*
X163960000Y-98474761D01*
X164055238Y-98522380D01*
X164150476Y-98522380D01*
X164245714Y-98474761D01*
X164293333Y-98427142D01*
X164340952Y-98331904D01*
X164388571Y-98141428D01*
X164388571Y-97903333D01*
X164340952Y-97712857D01*
X164293333Y-97617619D01*
X164245714Y-97570000D01*
X164150476Y-97522380D01*
X163436190Y-97617619D02*
X163388571Y-97570000D01*
X163293333Y-97522380D01*
X163055238Y-97522380D01*
X162960000Y-97570000D01*
X162912380Y-97617619D01*
X162864761Y-97712857D01*
X162864761Y-97808095D01*
X162912380Y-97950952D01*
X163483809Y-98522380D01*
X162864761Y-98522380D01*
X162483809Y-97617619D02*
X162436190Y-97570000D01*
X162340952Y-97522380D01*
X162102857Y-97522380D01*
X162007619Y-97570000D01*
X161960000Y-97617619D01*
X161912380Y-97712857D01*
X161912380Y-97808095D01*
X161960000Y-97950952D01*
X162531428Y-98522380D01*
X161912380Y-98522380D01*
X160721904Y-98522380D02*
X160721904Y-97522380D01*
X160150476Y-98522380D02*
X160579047Y-97950952D01*
X160150476Y-97522380D02*
X160721904Y-98093809D01*
X159340952Y-98474761D02*
X159436190Y-98522380D01*
X159626666Y-98522380D01*
X159721904Y-98474761D01*
X159769523Y-98379523D01*
X159769523Y-97998571D01*
X159721904Y-97903333D01*
X159626666Y-97855714D01*
X159436190Y-97855714D01*
X159340952Y-97903333D01*
X159293333Y-97998571D01*
X159293333Y-98093809D01*
X159769523Y-98189047D01*
X158864761Y-97855714D02*
X158864761Y-98522380D01*
X158864761Y-97950952D02*
X158817142Y-97903333D01*
X158721904Y-97855714D01*
X158579047Y-97855714D01*
X158483809Y-97903333D01*
X158436190Y-97998571D01*
X158436190Y-98522380D01*
X157960000Y-97855714D02*
X157960000Y-98712857D01*
X158007619Y-98808095D01*
X158102857Y-98855714D01*
X158150476Y-98855714D01*
X157960000Y-97522380D02*
X158007619Y-97570000D01*
X157960000Y-97617619D01*
X157912380Y-97570000D01*
X157960000Y-97522380D01*
X157960000Y-97617619D01*
X157483809Y-98522380D02*
X157483809Y-97855714D01*
X157483809Y-97522380D02*
X157531428Y-97570000D01*
X157483809Y-97617619D01*
X157436190Y-97570000D01*
X157483809Y-97522380D01*
X157483809Y-97617619D01*
X156055238Y-98046190D02*
X156055238Y-98522380D01*
X156388571Y-97522380D02*
X156055238Y-98046190D01*
X155721904Y-97522380D01*
X154960000Y-98522380D02*
X154960000Y-97998571D01*
X155007619Y-97903333D01*
X155102857Y-97855714D01*
X155293333Y-97855714D01*
X155388571Y-97903333D01*
X154960000Y-98474761D02*
X155055238Y-98522380D01*
X155293333Y-98522380D01*
X155388571Y-98474761D01*
X155436190Y-98379523D01*
X155436190Y-98284285D01*
X155388571Y-98189047D01*
X155293333Y-98141428D01*
X155055238Y-98141428D01*
X154960000Y-98093809D01*
X154483809Y-98522380D02*
X154483809Y-97855714D01*
X154483809Y-97950952D02*
X154436190Y-97903333D01*
X154340952Y-97855714D01*
X154198095Y-97855714D01*
X154102857Y-97903333D01*
X154055238Y-97998571D01*
X154055238Y-98522380D01*
X154055238Y-97998571D02*
X154007619Y-97903333D01*
X153912380Y-97855714D01*
X153769523Y-97855714D01*
X153674285Y-97903333D01*
X153626666Y-97998571D01*
X153626666Y-98522380D01*
X152721904Y-98522380D02*
X152721904Y-97998571D01*
X152769523Y-97903333D01*
X152864761Y-97855714D01*
X153055238Y-97855714D01*
X153150476Y-97903333D01*
X152721904Y-98474761D02*
X152817142Y-98522380D01*
X153055238Y-98522380D01*
X153150476Y-98474761D01*
X153198095Y-98379523D01*
X153198095Y-98284285D01*
X153150476Y-98189047D01*
X153055238Y-98141428D01*
X152817142Y-98141428D01*
X152721904Y-98093809D01*
X152245714Y-97855714D02*
X152245714Y-98522380D01*
X152245714Y-97950952D02*
X152198095Y-97903333D01*
X152102857Y-97855714D01*
X151960000Y-97855714D01*
X151864761Y-97903333D01*
X151817142Y-97998571D01*
X151817142Y-98522380D01*
X150960000Y-98474761D02*
X151055238Y-98522380D01*
X151245714Y-98522380D01*
X151340952Y-98474761D01*
X151388571Y-98379523D01*
X151388571Y-97998571D01*
X151340952Y-97903333D01*
X151245714Y-97855714D01*
X151055238Y-97855714D01*
X150960000Y-97903333D01*
X150912380Y-97998571D01*
X150912380Y-98093809D01*
X151388571Y-98189047D01*
X148960000Y-98522380D02*
X148960000Y-97522380D01*
X148531428Y-98522380D02*
X148531428Y-97998571D01*
X148579047Y-97903333D01*
X148674285Y-97855714D01*
X148817142Y-97855714D01*
X148912380Y-97903333D01*
X148960000Y-97950952D01*
X148198095Y-97855714D02*
X147817142Y-97855714D01*
X148055238Y-97522380D02*
X148055238Y-98379523D01*
X148007619Y-98474761D01*
X147912380Y-98522380D01*
X147817142Y-98522380D01*
X147626666Y-97855714D02*
X147245714Y-97855714D01*
X147483809Y-97522380D02*
X147483809Y-98379523D01*
X147436190Y-98474761D01*
X147340952Y-98522380D01*
X147245714Y-98522380D01*
X146912380Y-97855714D02*
X146912380Y-98855714D01*
X146912380Y-97903333D02*
X146817142Y-97855714D01*
X146626666Y-97855714D01*
X146531428Y-97903333D01*
X146483809Y-97950952D01*
X146436190Y-98046190D01*
X146436190Y-98331904D01*
X146483809Y-98427142D01*
X146531428Y-98474761D01*
X146626666Y-98522380D01*
X146817142Y-98522380D01*
X146912380Y-98474761D01*
X146055238Y-98474761D02*
X145960000Y-98522380D01*
X145769523Y-98522380D01*
X145674285Y-98474761D01*
X145626666Y-98379523D01*
X145626666Y-98331904D01*
X145674285Y-98236666D01*
X145769523Y-98189047D01*
X145912380Y-98189047D01*
X146007619Y-98141428D01*
X146055238Y-98046190D01*
X146055238Y-97998571D01*
X146007619Y-97903333D01*
X145912380Y-97855714D01*
X145769523Y-97855714D01*
X145674285Y-97903333D01*
X145198095Y-98427142D02*
X145150476Y-98474761D01*
X145198095Y-98522380D01*
X145245714Y-98474761D01*
X145198095Y-98427142D01*
X145198095Y-98522380D01*
X145198095Y-97903333D02*
X145150476Y-97950952D01*
X145198095Y-97998571D01*
X145245714Y-97950952D01*
X145198095Y-97903333D01*
X145198095Y-97998571D01*
X144007619Y-97474761D02*
X144864761Y-98760476D01*
X142960000Y-97474761D02*
X143817142Y-98760476D01*
X142198095Y-97855714D02*
X142198095Y-98665238D01*
X142245714Y-98760476D01*
X142293333Y-98808095D01*
X142388571Y-98855714D01*
X142531428Y-98855714D01*
X142626666Y-98808095D01*
X142198095Y-98474761D02*
X142293333Y-98522380D01*
X142483809Y-98522380D01*
X142579047Y-98474761D01*
X142626666Y-98427142D01*
X142674285Y-98331904D01*
X142674285Y-98046190D01*
X142626666Y-97950952D01*
X142579047Y-97903333D01*
X142483809Y-97855714D01*
X142293333Y-97855714D01*
X142198095Y-97903333D01*
X141721904Y-98522380D02*
X141721904Y-97855714D01*
X141721904Y-97522380D02*
X141769523Y-97570000D01*
X141721904Y-97617619D01*
X141674285Y-97570000D01*
X141721904Y-97522380D01*
X141721904Y-97617619D01*
X141388571Y-97855714D02*
X141007619Y-97855714D01*
X141245714Y-97522380D02*
X141245714Y-98379523D01*
X141198095Y-98474761D01*
X141102857Y-98522380D01*
X141007619Y-98522380D01*
X140674285Y-98522380D02*
X140674285Y-97522380D01*
X140245714Y-98522380D02*
X140245714Y-97998571D01*
X140293333Y-97903333D01*
X140388571Y-97855714D01*
X140531428Y-97855714D01*
X140626666Y-97903333D01*
X140674285Y-97950952D01*
X139340952Y-97855714D02*
X139340952Y-98522380D01*
X139769523Y-97855714D02*
X139769523Y-98379523D01*
X139721904Y-98474761D01*
X139626666Y-98522380D01*
X139483809Y-98522380D01*
X139388571Y-98474761D01*
X139340952Y-98427142D01*
X138864761Y-98522380D02*
X138864761Y-97522380D01*
X138864761Y-97903333D02*
X138769523Y-97855714D01*
X138579047Y-97855714D01*
X138483809Y-97903333D01*
X138436190Y-97950952D01*
X138388571Y-98046190D01*
X138388571Y-98331904D01*
X138436190Y-98427142D01*
X138483809Y-98474761D01*
X138579047Y-98522380D01*
X138769523Y-98522380D01*
X138864761Y-98474761D01*
X137960000Y-98427142D02*
X137912380Y-98474761D01*
X137960000Y-98522380D01*
X138007619Y-98474761D01*
X137960000Y-98427142D01*
X137960000Y-98522380D01*
X137055238Y-98474761D02*
X137150476Y-98522380D01*
X137340952Y-98522380D01*
X137436190Y-98474761D01*
X137483809Y-98427142D01*
X137531428Y-98331904D01*
X137531428Y-98046190D01*
X137483809Y-97950952D01*
X137436190Y-97903333D01*
X137340952Y-97855714D01*
X137150476Y-97855714D01*
X137055238Y-97903333D01*
X136483809Y-98522380D02*
X136579047Y-98474761D01*
X136626666Y-98427142D01*
X136674285Y-98331904D01*
X136674285Y-98046190D01*
X136626666Y-97950952D01*
X136579047Y-97903333D01*
X136483809Y-97855714D01*
X136340952Y-97855714D01*
X136245714Y-97903333D01*
X136198095Y-97950952D01*
X136150476Y-98046190D01*
X136150476Y-98331904D01*
X136198095Y-98427142D01*
X136245714Y-98474761D01*
X136340952Y-98522380D01*
X136483809Y-98522380D01*
X135721904Y-98522380D02*
X135721904Y-97855714D01*
X135721904Y-97950952D02*
X135674285Y-97903333D01*
X135579047Y-97855714D01*
X135436190Y-97855714D01*
X135340952Y-97903333D01*
X135293333Y-97998571D01*
X135293333Y-98522380D01*
X135293333Y-97998571D02*
X135245714Y-97903333D01*
X135150476Y-97855714D01*
X135007619Y-97855714D01*
X134912380Y-97903333D01*
X134864761Y-97998571D01*
X134864761Y-98522380D01*
X133674285Y-97474761D02*
X134531428Y-98760476D01*
X133340952Y-98522380D02*
X133340952Y-97855714D01*
X133340952Y-97522380D02*
X133388571Y-97570000D01*
X133340952Y-97617619D01*
X133293333Y-97570000D01*
X133340952Y-97522380D01*
X133340952Y-97617619D01*
X132864761Y-97855714D02*
X132864761Y-98712857D01*
X132912380Y-98808095D01*
X133007619Y-98855714D01*
X133055238Y-98855714D01*
X132864761Y-97522380D02*
X132912380Y-97570000D01*
X132864761Y-97617619D01*
X132817142Y-97570000D01*
X132864761Y-97522380D01*
X132864761Y-97617619D01*
X132388571Y-97855714D02*
X132388571Y-98522380D01*
X132388571Y-97950952D02*
X132340952Y-97903333D01*
X132245714Y-97855714D01*
X132102857Y-97855714D01*
X132007619Y-97903333D01*
X131960000Y-97998571D01*
X131960000Y-98522380D01*
X131102857Y-98474761D02*
X131198095Y-98522380D01*
X131388571Y-98522380D01*
X131483809Y-98474761D01*
X131531428Y-98379523D01*
X131531428Y-97998571D01*
X131483809Y-97903333D01*
X131388571Y-97855714D01*
X131198095Y-97855714D01*
X131102857Y-97903333D01*
X131055238Y-97998571D01*
X131055238Y-98093809D01*
X131531428Y-98189047D01*
X130626666Y-98522380D02*
X130626666Y-97522380D01*
X130531428Y-98141428D02*
X130245714Y-98522380D01*
X130245714Y-97855714D02*
X130626666Y-98236666D01*
X129436190Y-98474761D02*
X129531428Y-98522380D01*
X129721904Y-98522380D01*
X129817142Y-98474761D01*
X129864761Y-98379523D01*
X129864761Y-97998571D01*
X129817142Y-97903333D01*
X129721904Y-97855714D01*
X129531428Y-97855714D01*
X129436190Y-97903333D01*
X129388571Y-97998571D01*
X129388571Y-98093809D01*
X129864761Y-98189047D01*
X128960000Y-97855714D02*
X128960000Y-98522380D01*
X128960000Y-97950952D02*
X128912380Y-97903333D01*
X128817142Y-97855714D01*
X128674285Y-97855714D01*
X128579047Y-97903333D01*
X128531428Y-97998571D01*
X128531428Y-98522380D01*
X127626666Y-98522380D02*
X127626666Y-97998571D01*
X127674285Y-97903333D01*
X127769523Y-97855714D01*
X127960000Y-97855714D01*
X128055238Y-97903333D01*
X127626666Y-98474761D02*
X127721904Y-98522380D01*
X127960000Y-98522380D01*
X128055238Y-98474761D01*
X128102857Y-98379523D01*
X128102857Y-98284285D01*
X128055238Y-98189047D01*
X127960000Y-98141428D01*
X127721904Y-98141428D01*
X127626666Y-98093809D01*
X127150476Y-98522380D02*
X127150476Y-97855714D01*
X127150476Y-97950952D02*
X127102857Y-97903333D01*
X127007619Y-97855714D01*
X126864761Y-97855714D01*
X126769523Y-97903333D01*
X126721904Y-97998571D01*
X126721904Y-98522380D01*
X126721904Y-97998571D02*
X126674285Y-97903333D01*
X126579047Y-97855714D01*
X126436190Y-97855714D01*
X126340952Y-97903333D01*
X126293333Y-97998571D01*
X126293333Y-98522380D01*
X125388571Y-98522380D02*
X125388571Y-97998571D01*
X125436190Y-97903333D01*
X125531428Y-97855714D01*
X125721904Y-97855714D01*
X125817142Y-97903333D01*
X125388571Y-98474761D02*
X125483809Y-98522380D01*
X125721904Y-98522380D01*
X125817142Y-98474761D01*
X125864761Y-98379523D01*
X125864761Y-98284285D01*
X125817142Y-98189047D01*
X125721904Y-98141428D01*
X125483809Y-98141428D01*
X125388571Y-98093809D01*
X125007619Y-97855714D02*
X124769523Y-98522380D01*
X124531428Y-97855714D02*
X124769523Y-98522380D01*
X124864761Y-98760476D01*
X124912380Y-98808095D01*
X125007619Y-98855714D01*
D11*
%TO.C,REF\u002A\u002A*%
G36*
X147431114Y-93084505D02*
G01*
X147356461Y-93121727D01*
X147290569Y-93190261D01*
X147272423Y-93215648D01*
X147252655Y-93248866D01*
X147239828Y-93284945D01*
X147232490Y-93333098D01*
X147229187Y-93402536D01*
X147228462Y-93494206D01*
X147231737Y-93619830D01*
X147243123Y-93714154D01*
X147264959Y-93784523D01*
X147299581Y-93838286D01*
X147349330Y-93882788D01*
X147352986Y-93885423D01*
X147402015Y-93912377D01*
X147461055Y-93925712D01*
X147536141Y-93929000D01*
X147658205Y-93929000D01*
X147658256Y-94047497D01*
X147659392Y-94113492D01*
X147666314Y-94152202D01*
X147684402Y-94175419D01*
X147719038Y-94194933D01*
X147727355Y-94198920D01*
X147766280Y-94217603D01*
X147796417Y-94229403D01*
X147818826Y-94230422D01*
X147834567Y-94216761D01*
X147844698Y-94184522D01*
X147850277Y-94129804D01*
X147852365Y-94048711D01*
X147852019Y-93937344D01*
X147850300Y-93791802D01*
X147849763Y-93748269D01*
X147847828Y-93598205D01*
X147846096Y-93500042D01*
X147658308Y-93500042D01*
X147657252Y-93583364D01*
X147652562Y-93637880D01*
X147641949Y-93673837D01*
X147623128Y-93701482D01*
X147610350Y-93714965D01*
X147558110Y-93754417D01*
X147511858Y-93757628D01*
X147464133Y-93725049D01*
X147462923Y-93723846D01*
X147443506Y-93698668D01*
X147431693Y-93664447D01*
X147425735Y-93611748D01*
X147423880Y-93531131D01*
X147423846Y-93513271D01*
X147428330Y-93402175D01*
X147442926Y-93325161D01*
X147469350Y-93278147D01*
X147509317Y-93257050D01*
X147532416Y-93254923D01*
X147587238Y-93264900D01*
X147624842Y-93297752D01*
X147647477Y-93357857D01*
X147657394Y-93449598D01*
X147658308Y-93500042D01*
X147846096Y-93500042D01*
X147845778Y-93482060D01*
X147843127Y-93394679D01*
X147839394Y-93330905D01*
X147834093Y-93285582D01*
X147826742Y-93253555D01*
X147816857Y-93229668D01*
X147803954Y-93208764D01*
X147798421Y-93200898D01*
X147725031Y-93126595D01*
X147632240Y-93084467D01*
X147524904Y-93072722D01*
X147431114Y-93084505D01*
G37*
X147431114Y-93084505D02*
X147356461Y-93121727D01*
X147290569Y-93190261D01*
X147272423Y-93215648D01*
X147252655Y-93248866D01*
X147239828Y-93284945D01*
X147232490Y-93333098D01*
X147229187Y-93402536D01*
X147228462Y-93494206D01*
X147231737Y-93619830D01*
X147243123Y-93714154D01*
X147264959Y-93784523D01*
X147299581Y-93838286D01*
X147349330Y-93882788D01*
X147352986Y-93885423D01*
X147402015Y-93912377D01*
X147461055Y-93925712D01*
X147536141Y-93929000D01*
X147658205Y-93929000D01*
X147658256Y-94047497D01*
X147659392Y-94113492D01*
X147666314Y-94152202D01*
X147684402Y-94175419D01*
X147719038Y-94194933D01*
X147727355Y-94198920D01*
X147766280Y-94217603D01*
X147796417Y-94229403D01*
X147818826Y-94230422D01*
X147834567Y-94216761D01*
X147844698Y-94184522D01*
X147850277Y-94129804D01*
X147852365Y-94048711D01*
X147852019Y-93937344D01*
X147850300Y-93791802D01*
X147849763Y-93748269D01*
X147847828Y-93598205D01*
X147846096Y-93500042D01*
X147658308Y-93500042D01*
X147657252Y-93583364D01*
X147652562Y-93637880D01*
X147641949Y-93673837D01*
X147623128Y-93701482D01*
X147610350Y-93714965D01*
X147558110Y-93754417D01*
X147511858Y-93757628D01*
X147464133Y-93725049D01*
X147462923Y-93723846D01*
X147443506Y-93698668D01*
X147431693Y-93664447D01*
X147425735Y-93611748D01*
X147423880Y-93531131D01*
X147423846Y-93513271D01*
X147428330Y-93402175D01*
X147442926Y-93325161D01*
X147469350Y-93278147D01*
X147509317Y-93257050D01*
X147532416Y-93254923D01*
X147587238Y-93264900D01*
X147624842Y-93297752D01*
X147647477Y-93357857D01*
X147657394Y-93449598D01*
X147658308Y-93500042D01*
X147846096Y-93500042D01*
X147845778Y-93482060D01*
X147843127Y-93394679D01*
X147839394Y-93330905D01*
X147834093Y-93285582D01*
X147826742Y-93253555D01*
X147816857Y-93229668D01*
X147803954Y-93208764D01*
X147798421Y-93200898D01*
X147725031Y-93126595D01*
X147632240Y-93084467D01*
X147524904Y-93072722D01*
X147431114Y-93084505D01*
G36*
X145928336Y-93095089D02*
G01*
X145865633Y-93131358D01*
X145822039Y-93167358D01*
X145790155Y-93205075D01*
X145768190Y-93251199D01*
X145754351Y-93312421D01*
X145746847Y-93395431D01*
X145743883Y-93506919D01*
X145743539Y-93587062D01*
X145743539Y-93882065D01*
X145909615Y-93956515D01*
X145919385Y-93633402D01*
X145923421Y-93512729D01*
X145927656Y-93425141D01*
X145932903Y-93364650D01*
X145939975Y-93325268D01*
X145949689Y-93301007D01*
X145962856Y-93285880D01*
X145967081Y-93282606D01*
X146031091Y-93257034D01*
X146095792Y-93267153D01*
X146134308Y-93294000D01*
X146149975Y-93313024D01*
X146160820Y-93337988D01*
X146167712Y-93375834D01*
X146171521Y-93433502D01*
X146173117Y-93517935D01*
X146173385Y-93605928D01*
X146173437Y-93716323D01*
X146175328Y-93794463D01*
X146181655Y-93847165D01*
X146195017Y-93881242D01*
X146218015Y-93903511D01*
X146253246Y-93920787D01*
X146300303Y-93938738D01*
X146351697Y-93958278D01*
X146345579Y-93611485D01*
X146343116Y-93486468D01*
X146340233Y-93394082D01*
X146336102Y-93327881D01*
X146329893Y-93281420D01*
X146320774Y-93248256D01*
X146307917Y-93221944D01*
X146292416Y-93198729D01*
X146217629Y-93124569D01*
X146126372Y-93081684D01*
X146027117Y-93071412D01*
X145928336Y-93095089D01*
G37*
X145928336Y-93095089D02*
X145865633Y-93131358D01*
X145822039Y-93167358D01*
X145790155Y-93205075D01*
X145768190Y-93251199D01*
X145754351Y-93312421D01*
X145746847Y-93395431D01*
X145743883Y-93506919D01*
X145743539Y-93587062D01*
X145743539Y-93882065D01*
X145909615Y-93956515D01*
X145919385Y-93633402D01*
X145923421Y-93512729D01*
X145927656Y-93425141D01*
X145932903Y-93364650D01*
X145939975Y-93325268D01*
X145949689Y-93301007D01*
X145962856Y-93285880D01*
X145967081Y-93282606D01*
X146031091Y-93257034D01*
X146095792Y-93267153D01*
X146134308Y-93294000D01*
X146149975Y-93313024D01*
X146160820Y-93337988D01*
X146167712Y-93375834D01*
X146171521Y-93433502D01*
X146173117Y-93517935D01*
X146173385Y-93605928D01*
X146173437Y-93716323D01*
X146175328Y-93794463D01*
X146181655Y-93847165D01*
X146195017Y-93881242D01*
X146218015Y-93903511D01*
X146253246Y-93920787D01*
X146300303Y-93938738D01*
X146351697Y-93958278D01*
X146345579Y-93611485D01*
X146343116Y-93486468D01*
X146340233Y-93394082D01*
X146336102Y-93327881D01*
X146329893Y-93281420D01*
X146320774Y-93248256D01*
X146307917Y-93221944D01*
X146292416Y-93198729D01*
X146217629Y-93124569D01*
X146126372Y-93081684D01*
X146027117Y-93071412D01*
X145928336Y-93095089D01*
G36*
X148183114Y-93087256D02*
G01*
X148091536Y-93135409D01*
X148023951Y-93212905D01*
X147999943Y-93262727D01*
X147981262Y-93337533D01*
X147971699Y-93432052D01*
X147970792Y-93535210D01*
X147978079Y-93635935D01*
X147993097Y-93723153D01*
X148015385Y-93785791D01*
X148022235Y-93796579D01*
X148103368Y-93877105D01*
X148199734Y-93925336D01*
X148304299Y-93939450D01*
X148410032Y-93917629D01*
X148439457Y-93904547D01*
X148496759Y-93864231D01*
X148547050Y-93810775D01*
X148551803Y-93803995D01*
X148571122Y-93771321D01*
X148583892Y-93736394D01*
X148591436Y-93690414D01*
X148595076Y-93624584D01*
X148596135Y-93530105D01*
X148596154Y-93508923D01*
X148596106Y-93502182D01*
X148400769Y-93502182D01*
X148399632Y-93591349D01*
X148395159Y-93650520D01*
X148385754Y-93688741D01*
X148369824Y-93715053D01*
X148361692Y-93723846D01*
X148314942Y-93757261D01*
X148269553Y-93755737D01*
X148223660Y-93726752D01*
X148196288Y-93695809D01*
X148180077Y-93650643D01*
X148170974Y-93579420D01*
X148170349Y-93571114D01*
X148168796Y-93442037D01*
X148185035Y-93346172D01*
X148218848Y-93284107D01*
X148270016Y-93256432D01*
X148288280Y-93254923D01*
X148336240Y-93262513D01*
X148369047Y-93288808D01*
X148389105Y-93339095D01*
X148398822Y-93418664D01*
X148400769Y-93502182D01*
X148596106Y-93502182D01*
X148595426Y-93408249D01*
X148592371Y-93337906D01*
X148585678Y-93289163D01*
X148574040Y-93253288D01*
X148556147Y-93221548D01*
X148552192Y-93215648D01*
X148485733Y-93136104D01*
X148413315Y-93089929D01*
X148325151Y-93071599D01*
X148295213Y-93070703D01*
X148183114Y-93087256D01*
G37*
X148183114Y-93087256D02*
X148091536Y-93135409D01*
X148023951Y-93212905D01*
X147999943Y-93262727D01*
X147981262Y-93337533D01*
X147971699Y-93432052D01*
X147970792Y-93535210D01*
X147978079Y-93635935D01*
X147993097Y-93723153D01*
X148015385Y-93785791D01*
X148022235Y-93796579D01*
X148103368Y-93877105D01*
X148199734Y-93925336D01*
X148304299Y-93939450D01*
X148410032Y-93917629D01*
X148439457Y-93904547D01*
X148496759Y-93864231D01*
X148547050Y-93810775D01*
X148551803Y-93803995D01*
X148571122Y-93771321D01*
X148583892Y-93736394D01*
X148591436Y-93690414D01*
X148595076Y-93624584D01*
X148596135Y-93530105D01*
X148596154Y-93508923D01*
X148596106Y-93502182D01*
X148400769Y-93502182D01*
X148399632Y-93591349D01*
X148395159Y-93650520D01*
X148385754Y-93688741D01*
X148369824Y-93715053D01*
X148361692Y-93723846D01*
X148314942Y-93757261D01*
X148269553Y-93755737D01*
X148223660Y-93726752D01*
X148196288Y-93695809D01*
X148180077Y-93650643D01*
X148170974Y-93579420D01*
X148170349Y-93571114D01*
X148168796Y-93442037D01*
X148185035Y-93346172D01*
X148218848Y-93284107D01*
X148270016Y-93256432D01*
X148288280Y-93254923D01*
X148336240Y-93262513D01*
X148369047Y-93288808D01*
X148389105Y-93339095D01*
X148398822Y-93418664D01*
X148400769Y-93502182D01*
X148596106Y-93502182D01*
X148595426Y-93408249D01*
X148592371Y-93337906D01*
X148585678Y-93289163D01*
X148574040Y-93253288D01*
X148556147Y-93221548D01*
X148552192Y-93215648D01*
X148485733Y-93136104D01*
X148413315Y-93089929D01*
X148325151Y-93071599D01*
X148295213Y-93070703D01*
X148183114Y-93087256D01*
G36*
X146665746Y-93099745D02*
G01*
X146588714Y-93151567D01*
X146529184Y-93226412D01*
X146493622Y-93321654D01*
X146486429Y-93391756D01*
X146487246Y-93421009D01*
X146494086Y-93443407D01*
X146512888Y-93463474D01*
X146549592Y-93485733D01*
X146610138Y-93514709D01*
X146700466Y-93554927D01*
X146700923Y-93555129D01*
X146784067Y-93593210D01*
X146852247Y-93627025D01*
X146898495Y-93652933D01*
X146915842Y-93667295D01*
X146915846Y-93667411D01*
X146900557Y-93698685D01*
X146864804Y-93733157D01*
X146823758Y-93757990D01*
X146802963Y-93762923D01*
X146746230Y-93745862D01*
X146697373Y-93703133D01*
X146673535Y-93656155D01*
X146650603Y-93621522D01*
X146605682Y-93582081D01*
X146552877Y-93548009D01*
X146506290Y-93529480D01*
X146496548Y-93528462D01*
X146485582Y-93545215D01*
X146484921Y-93588039D01*
X146492980Y-93645781D01*
X146508173Y-93707289D01*
X146528914Y-93761409D01*
X146529962Y-93763510D01*
X146592379Y-93850660D01*
X146673274Y-93909939D01*
X146765144Y-93939034D01*
X146860487Y-93935634D01*
X146951802Y-93897428D01*
X146955862Y-93894741D01*
X147027694Y-93829642D01*
X147074927Y-93744705D01*
X147101066Y-93633021D01*
X147104574Y-93601643D01*
X147110787Y-93453536D01*
X147103339Y-93384468D01*
X146915846Y-93384468D01*
X146913410Y-93427552D01*
X146900086Y-93440126D01*
X146866868Y-93430719D01*
X146814506Y-93408483D01*
X146755976Y-93380610D01*
X146754521Y-93379872D01*
X146704911Y-93353777D01*
X146685000Y-93336363D01*
X146689910Y-93318107D01*
X146710584Y-93294120D01*
X146763181Y-93259406D01*
X146819823Y-93256856D01*
X146870631Y-93282119D01*
X146905724Y-93330847D01*
X146915846Y-93384468D01*
X147103339Y-93384468D01*
X147098008Y-93335036D01*
X147065222Y-93241055D01*
X147019579Y-93175215D01*
X146937198Y-93108681D01*
X146846454Y-93075676D01*
X146753815Y-93073573D01*
X146665746Y-93099745D01*
G37*
X146665746Y-93099745D02*
X146588714Y-93151567D01*
X146529184Y-93226412D01*
X146493622Y-93321654D01*
X146486429Y-93391756D01*
X146487246Y-93421009D01*
X146494086Y-93443407D01*
X146512888Y-93463474D01*
X146549592Y-93485733D01*
X146610138Y-93514709D01*
X146700466Y-93554927D01*
X146700923Y-93555129D01*
X146784067Y-93593210D01*
X146852247Y-93627025D01*
X146898495Y-93652933D01*
X146915842Y-93667295D01*
X146915846Y-93667411D01*
X146900557Y-93698685D01*
X146864804Y-93733157D01*
X146823758Y-93757990D01*
X146802963Y-93762923D01*
X146746230Y-93745862D01*
X146697373Y-93703133D01*
X146673535Y-93656155D01*
X146650603Y-93621522D01*
X146605682Y-93582081D01*
X146552877Y-93548009D01*
X146506290Y-93529480D01*
X146496548Y-93528462D01*
X146485582Y-93545215D01*
X146484921Y-93588039D01*
X146492980Y-93645781D01*
X146508173Y-93707289D01*
X146528914Y-93761409D01*
X146529962Y-93763510D01*
X146592379Y-93850660D01*
X146673274Y-93909939D01*
X146765144Y-93939034D01*
X146860487Y-93935634D01*
X146951802Y-93897428D01*
X146955862Y-93894741D01*
X147027694Y-93829642D01*
X147074927Y-93744705D01*
X147101066Y-93633021D01*
X147104574Y-93601643D01*
X147110787Y-93453536D01*
X147103339Y-93384468D01*
X146915846Y-93384468D01*
X146913410Y-93427552D01*
X146900086Y-93440126D01*
X146866868Y-93430719D01*
X146814506Y-93408483D01*
X146755976Y-93380610D01*
X146754521Y-93379872D01*
X146704911Y-93353777D01*
X146685000Y-93336363D01*
X146689910Y-93318107D01*
X146710584Y-93294120D01*
X146763181Y-93259406D01*
X146819823Y-93256856D01*
X146870631Y-93282119D01*
X146905724Y-93330847D01*
X146915846Y-93384468D01*
X147103339Y-93384468D01*
X147098008Y-93335036D01*
X147065222Y-93241055D01*
X147019579Y-93175215D01*
X146937198Y-93108681D01*
X146846454Y-93075676D01*
X146753815Y-93073573D01*
X146665746Y-93099745D01*
G36*
X145040154Y-92992120D02*
G01*
X145034428Y-93071980D01*
X145027851Y-93119039D01*
X145018738Y-93139566D01*
X145005402Y-93139829D01*
X145001077Y-93137378D01*
X144943556Y-93119636D01*
X144868732Y-93120672D01*
X144792661Y-93138910D01*
X144745082Y-93162505D01*
X144696298Y-93200198D01*
X144660636Y-93242855D01*
X144636155Y-93297057D01*
X144620913Y-93369384D01*
X144612970Y-93466419D01*
X144610384Y-93594742D01*
X144610338Y-93619358D01*
X144610308Y-93895870D01*
X144671839Y-93917320D01*
X144715541Y-93931912D01*
X144739518Y-93938706D01*
X144740223Y-93938769D01*
X144742585Y-93920345D01*
X144744594Y-93869526D01*
X144746099Y-93792993D01*
X144746947Y-93697430D01*
X144747077Y-93639329D01*
X144747349Y-93524771D01*
X144748748Y-93442667D01*
X144752151Y-93386393D01*
X144758433Y-93349326D01*
X144768471Y-93324844D01*
X144783139Y-93306325D01*
X144792298Y-93297406D01*
X144855211Y-93261466D01*
X144923864Y-93258775D01*
X144986152Y-93289170D01*
X144997671Y-93300144D01*
X145014567Y-93320779D01*
X145026286Y-93345256D01*
X145033767Y-93380647D01*
X145037946Y-93434026D01*
X145039763Y-93512466D01*
X145040154Y-93620617D01*
X145040154Y-93895870D01*
X145101685Y-93917320D01*
X145145387Y-93931912D01*
X145169364Y-93938706D01*
X145170070Y-93938769D01*
X145171874Y-93920069D01*
X145173500Y-93867322D01*
X145174883Y-93785557D01*
X145175958Y-93679805D01*
X145176660Y-93555094D01*
X145176923Y-93416455D01*
X145176923Y-92881806D01*
X145049923Y-92828236D01*
X145040154Y-92992120D01*
G37*
X145040154Y-92992120D02*
X145034428Y-93071980D01*
X145027851Y-93119039D01*
X145018738Y-93139566D01*
X145005402Y-93139829D01*
X145001077Y-93137378D01*
X144943556Y-93119636D01*
X144868732Y-93120672D01*
X144792661Y-93138910D01*
X144745082Y-93162505D01*
X144696298Y-93200198D01*
X144660636Y-93242855D01*
X144636155Y-93297057D01*
X144620913Y-93369384D01*
X144612970Y-93466419D01*
X144610384Y-93594742D01*
X144610338Y-93619358D01*
X144610308Y-93895870D01*
X144671839Y-93917320D01*
X144715541Y-93931912D01*
X144739518Y-93938706D01*
X144740223Y-93938769D01*
X144742585Y-93920345D01*
X144744594Y-93869526D01*
X144746099Y-93792993D01*
X144746947Y-93697430D01*
X144747077Y-93639329D01*
X144747349Y-93524771D01*
X144748748Y-93442667D01*
X144752151Y-93386393D01*
X144758433Y-93349326D01*
X144768471Y-93324844D01*
X144783139Y-93306325D01*
X144792298Y-93297406D01*
X144855211Y-93261466D01*
X144923864Y-93258775D01*
X144986152Y-93289170D01*
X144997671Y-93300144D01*
X145014567Y-93320779D01*
X145026286Y-93345256D01*
X145033767Y-93380647D01*
X145037946Y-93434026D01*
X145039763Y-93512466D01*
X145040154Y-93620617D01*
X145040154Y-93895870D01*
X145101685Y-93917320D01*
X145145387Y-93931912D01*
X145169364Y-93938706D01*
X145170070Y-93938769D01*
X145171874Y-93920069D01*
X145173500Y-93867322D01*
X145174883Y-93785557D01*
X145175958Y-93679805D01*
X145176660Y-93555094D01*
X145176923Y-93416455D01*
X145176923Y-92881806D01*
X145049923Y-92828236D01*
X145040154Y-92992120D01*
G36*
X144146499Y-93126303D02*
G01*
X144069940Y-93154733D01*
X144069064Y-93155279D01*
X144021715Y-93190127D01*
X143986759Y-93230852D01*
X143962175Y-93283925D01*
X143945938Y-93355814D01*
X143936025Y-93452992D01*
X143930414Y-93581928D01*
X143929923Y-93600298D01*
X143922859Y-93877287D01*
X143982305Y-93908028D01*
X144025319Y-93928802D01*
X144051290Y-93938646D01*
X144052491Y-93938769D01*
X144056986Y-93920606D01*
X144060556Y-93871612D01*
X144062752Y-93800031D01*
X144063231Y-93742068D01*
X144063242Y-93648170D01*
X144067534Y-93589203D01*
X144082497Y-93561079D01*
X144114518Y-93559706D01*
X144169986Y-93580998D01*
X144253731Y-93620136D01*
X144315311Y-93652643D01*
X144346983Y-93680845D01*
X144356294Y-93711582D01*
X144356308Y-93713104D01*
X144340943Y-93766054D01*
X144295453Y-93794660D01*
X144225834Y-93798803D01*
X144175687Y-93798084D01*
X144149246Y-93812527D01*
X144132757Y-93847218D01*
X144123267Y-93891416D01*
X144136943Y-93916493D01*
X144142093Y-93920082D01*
X144190575Y-93934496D01*
X144258469Y-93936537D01*
X144328388Y-93926983D01*
X144377932Y-93909522D01*
X144446430Y-93851364D01*
X144485366Y-93770408D01*
X144493077Y-93707160D01*
X144487193Y-93650111D01*
X144465899Y-93603542D01*
X144423735Y-93562181D01*
X144355241Y-93520755D01*
X144254956Y-93473993D01*
X144248846Y-93471350D01*
X144158510Y-93429617D01*
X144102765Y-93395391D01*
X144078871Y-93364635D01*
X144084087Y-93333311D01*
X144115672Y-93297383D01*
X144125117Y-93289116D01*
X144188383Y-93257058D01*
X144253936Y-93258407D01*
X144311028Y-93289838D01*
X144348907Y-93348024D01*
X144352426Y-93359446D01*
X144386700Y-93414837D01*
X144430191Y-93441518D01*
X144493077Y-93467960D01*
X144493077Y-93399548D01*
X144473948Y-93300110D01*
X144417169Y-93208902D01*
X144387622Y-93178389D01*
X144320458Y-93139228D01*
X144235044Y-93121500D01*
X144146499Y-93126303D01*
G37*
X144146499Y-93126303D02*
X144069940Y-93154733D01*
X144069064Y-93155279D01*
X144021715Y-93190127D01*
X143986759Y-93230852D01*
X143962175Y-93283925D01*
X143945938Y-93355814D01*
X143936025Y-93452992D01*
X143930414Y-93581928D01*
X143929923Y-93600298D01*
X143922859Y-93877287D01*
X143982305Y-93908028D01*
X144025319Y-93928802D01*
X144051290Y-93938646D01*
X144052491Y-93938769D01*
X144056986Y-93920606D01*
X144060556Y-93871612D01*
X144062752Y-93800031D01*
X144063231Y-93742068D01*
X144063242Y-93648170D01*
X144067534Y-93589203D01*
X144082497Y-93561079D01*
X144114518Y-93559706D01*
X144169986Y-93580998D01*
X144253731Y-93620136D01*
X144315311Y-93652643D01*
X144346983Y-93680845D01*
X144356294Y-93711582D01*
X144356308Y-93713104D01*
X144340943Y-93766054D01*
X144295453Y-93794660D01*
X144225834Y-93798803D01*
X144175687Y-93798084D01*
X144149246Y-93812527D01*
X144132757Y-93847218D01*
X144123267Y-93891416D01*
X144136943Y-93916493D01*
X144142093Y-93920082D01*
X144190575Y-93934496D01*
X144258469Y-93936537D01*
X144328388Y-93926983D01*
X144377932Y-93909522D01*
X144446430Y-93851364D01*
X144485366Y-93770408D01*
X144493077Y-93707160D01*
X144487193Y-93650111D01*
X144465899Y-93603542D01*
X144423735Y-93562181D01*
X144355241Y-93520755D01*
X144254956Y-93473993D01*
X144248846Y-93471350D01*
X144158510Y-93429617D01*
X144102765Y-93395391D01*
X144078871Y-93364635D01*
X144084087Y-93333311D01*
X144115672Y-93297383D01*
X144125117Y-93289116D01*
X144188383Y-93257058D01*
X144253936Y-93258407D01*
X144311028Y-93289838D01*
X144348907Y-93348024D01*
X144352426Y-93359446D01*
X144386700Y-93414837D01*
X144430191Y-93441518D01*
X144493077Y-93467960D01*
X144493077Y-93399548D01*
X144473948Y-93300110D01*
X144417169Y-93208902D01*
X144387622Y-93178389D01*
X144320458Y-93139228D01*
X144235044Y-93121500D01*
X144146499Y-93126303D01*
G36*
X143486638Y-93124670D02*
G01*
X143397883Y-93157421D01*
X143325978Y-93215350D01*
X143297856Y-93256128D01*
X143267198Y-93330954D01*
X143267835Y-93385058D01*
X143300013Y-93421446D01*
X143311919Y-93427633D01*
X143363325Y-93446925D01*
X143389578Y-93441982D01*
X143398470Y-93409587D01*
X143398923Y-93391692D01*
X143415203Y-93325859D01*
X143457635Y-93279807D01*
X143516612Y-93257564D01*
X143582525Y-93263161D01*
X143636105Y-93292229D01*
X143654202Y-93308810D01*
X143667029Y-93328925D01*
X143675694Y-93359332D01*
X143681304Y-93406788D01*
X143684965Y-93478050D01*
X143687785Y-93579875D01*
X143688516Y-93612115D01*
X143691180Y-93722410D01*
X143694208Y-93800036D01*
X143698750Y-93851396D01*
X143705954Y-93882890D01*
X143716967Y-93900920D01*
X143732940Y-93911888D01*
X143743166Y-93916733D01*
X143786594Y-93933301D01*
X143812158Y-93938769D01*
X143820605Y-93920507D01*
X143825761Y-93865296D01*
X143827654Y-93772499D01*
X143826311Y-93641478D01*
X143825893Y-93621269D01*
X143822942Y-93501733D01*
X143819452Y-93414449D01*
X143814486Y-93352591D01*
X143807107Y-93309336D01*
X143796376Y-93277860D01*
X143781355Y-93251339D01*
X143773498Y-93239975D01*
X143728447Y-93189692D01*
X143678060Y-93150581D01*
X143671892Y-93147167D01*
X143581542Y-93120212D01*
X143486638Y-93124670D01*
G37*
X143486638Y-93124670D02*
X143397883Y-93157421D01*
X143325978Y-93215350D01*
X143297856Y-93256128D01*
X143267198Y-93330954D01*
X143267835Y-93385058D01*
X143300013Y-93421446D01*
X143311919Y-93427633D01*
X143363325Y-93446925D01*
X143389578Y-93441982D01*
X143398470Y-93409587D01*
X143398923Y-93391692D01*
X143415203Y-93325859D01*
X143457635Y-93279807D01*
X143516612Y-93257564D01*
X143582525Y-93263161D01*
X143636105Y-93292229D01*
X143654202Y-93308810D01*
X143667029Y-93328925D01*
X143675694Y-93359332D01*
X143681304Y-93406788D01*
X143684965Y-93478050D01*
X143687785Y-93579875D01*
X143688516Y-93612115D01*
X143691180Y-93722410D01*
X143694208Y-93800036D01*
X143698750Y-93851396D01*
X143705954Y-93882890D01*
X143716967Y-93900920D01*
X143732940Y-93911888D01*
X143743166Y-93916733D01*
X143786594Y-93933301D01*
X143812158Y-93938769D01*
X143820605Y-93920507D01*
X143825761Y-93865296D01*
X143827654Y-93772499D01*
X143826311Y-93641478D01*
X143825893Y-93621269D01*
X143822942Y-93501733D01*
X143819452Y-93414449D01*
X143814486Y-93352591D01*
X143807107Y-93309336D01*
X143796376Y-93277860D01*
X143781355Y-93251339D01*
X143773498Y-93239975D01*
X143728447Y-93189692D01*
X143678060Y-93150581D01*
X143671892Y-93147167D01*
X143581542Y-93120212D01*
X143486638Y-93124670D01*
G36*
X142597919Y-93280289D02*
G01*
X142598167Y-93426320D01*
X142599128Y-93538655D01*
X142601206Y-93622678D01*
X142604807Y-93683769D01*
X142610335Y-93727309D01*
X142618196Y-93758679D01*
X142628793Y-93783262D01*
X142636818Y-93797294D01*
X142703272Y-93873388D01*
X142787530Y-93921084D01*
X142880751Y-93938199D01*
X142974100Y-93922546D01*
X143029688Y-93894418D01*
X143088043Y-93845760D01*
X143127814Y-93786333D01*
X143151810Y-93708507D01*
X143162839Y-93604652D01*
X143164401Y-93528462D01*
X143164191Y-93522986D01*
X143027692Y-93522986D01*
X143026859Y-93610355D01*
X143023039Y-93668192D01*
X143014254Y-93706029D01*
X142998526Y-93733398D01*
X142979734Y-93754042D01*
X142916625Y-93793890D01*
X142848863Y-93797295D01*
X142784821Y-93764025D01*
X142779836Y-93759517D01*
X142758561Y-93736067D01*
X142745221Y-93708166D01*
X142737999Y-93666641D01*
X142735077Y-93602316D01*
X142734615Y-93531200D01*
X142735617Y-93441858D01*
X142739762Y-93382258D01*
X142748764Y-93343089D01*
X142764333Y-93315040D01*
X142777098Y-93300144D01*
X142836400Y-93262575D01*
X142904699Y-93258057D01*
X142969890Y-93286753D01*
X142982472Y-93297406D01*
X143003889Y-93321063D01*
X143017256Y-93349251D01*
X143024434Y-93391245D01*
X143027281Y-93456319D01*
X143027692Y-93522986D01*
X143164191Y-93522986D01*
X143159678Y-93405765D01*
X143143638Y-93313577D01*
X143113472Y-93244269D01*
X143066371Y-93190211D01*
X143029688Y-93162505D01*
X142963010Y-93132572D01*
X142885728Y-93118678D01*
X142813890Y-93122397D01*
X142773692Y-93137400D01*
X142757918Y-93141670D01*
X142747450Y-93125750D01*
X142740144Y-93083089D01*
X142734615Y-93018106D01*
X142728563Y-92945732D01*
X142720156Y-92902187D01*
X142704859Y-92877287D01*
X142678136Y-92860845D01*
X142661346Y-92853564D01*
X142597846Y-92826963D01*
X142597919Y-93280289D01*
G37*
X142597919Y-93280289D02*
X142598167Y-93426320D01*
X142599128Y-93538655D01*
X142601206Y-93622678D01*
X142604807Y-93683769D01*
X142610335Y-93727309D01*
X142618196Y-93758679D01*
X142628793Y-93783262D01*
X142636818Y-93797294D01*
X142703272Y-93873388D01*
X142787530Y-93921084D01*
X142880751Y-93938199D01*
X142974100Y-93922546D01*
X143029688Y-93894418D01*
X143088043Y-93845760D01*
X143127814Y-93786333D01*
X143151810Y-93708507D01*
X143162839Y-93604652D01*
X143164401Y-93528462D01*
X143164191Y-93522986D01*
X143027692Y-93522986D01*
X143026859Y-93610355D01*
X143023039Y-93668192D01*
X143014254Y-93706029D01*
X142998526Y-93733398D01*
X142979734Y-93754042D01*
X142916625Y-93793890D01*
X142848863Y-93797295D01*
X142784821Y-93764025D01*
X142779836Y-93759517D01*
X142758561Y-93736067D01*
X142745221Y-93708166D01*
X142737999Y-93666641D01*
X142735077Y-93602316D01*
X142734615Y-93531200D01*
X142735617Y-93441858D01*
X142739762Y-93382258D01*
X142748764Y-93343089D01*
X142764333Y-93315040D01*
X142777098Y-93300144D01*
X142836400Y-93262575D01*
X142904699Y-93258057D01*
X142969890Y-93286753D01*
X142982472Y-93297406D01*
X143003889Y-93321063D01*
X143017256Y-93349251D01*
X143024434Y-93391245D01*
X143027281Y-93456319D01*
X143027692Y-93522986D01*
X143164191Y-93522986D01*
X143159678Y-93405765D01*
X143143638Y-93313577D01*
X143113472Y-93244269D01*
X143066371Y-93190211D01*
X143029688Y-93162505D01*
X142963010Y-93132572D01*
X142885728Y-93118678D01*
X142813890Y-93122397D01*
X142773692Y-93137400D01*
X142757918Y-93141670D01*
X142747450Y-93125750D01*
X142740144Y-93083089D01*
X142734615Y-93018106D01*
X142728563Y-92945732D01*
X142720156Y-92902187D01*
X142704859Y-92877287D01*
X142678136Y-92860845D01*
X142661346Y-92853564D01*
X142597846Y-92826963D01*
X142597919Y-93280289D01*
G36*
X141804071Y-93136662D02*
G01*
X141801089Y-93188068D01*
X141798753Y-93266192D01*
X141797251Y-93364857D01*
X141796769Y-93468343D01*
X141796769Y-93818533D01*
X141858599Y-93880363D01*
X141901207Y-93918462D01*
X141938610Y-93933895D01*
X141989730Y-93932918D01*
X142010022Y-93930433D01*
X142073446Y-93923200D01*
X142125905Y-93919055D01*
X142138692Y-93918672D01*
X142181801Y-93921176D01*
X142243456Y-93927462D01*
X142267362Y-93930433D01*
X142326078Y-93935028D01*
X142365536Y-93925046D01*
X142404662Y-93894228D01*
X142418785Y-93880363D01*
X142480615Y-93818533D01*
X142480615Y-93163503D01*
X142430850Y-93140829D01*
X142387998Y-93124034D01*
X142362927Y-93118154D01*
X142356499Y-93136736D01*
X142350491Y-93188655D01*
X142345303Y-93268172D01*
X142341336Y-93369546D01*
X142339423Y-93455192D01*
X142334077Y-93792231D01*
X142287440Y-93798825D01*
X142245024Y-93794214D01*
X142224240Y-93779287D01*
X142218430Y-93751377D01*
X142213470Y-93691925D01*
X142209754Y-93608466D01*
X142207676Y-93508532D01*
X142207376Y-93457104D01*
X142207077Y-93161054D01*
X142145546Y-93139604D01*
X142101996Y-93125020D01*
X142078306Y-93118219D01*
X142077623Y-93118154D01*
X142075246Y-93136642D01*
X142072634Y-93187906D01*
X142070005Y-93265649D01*
X142067579Y-93363574D01*
X142065885Y-93455192D01*
X142060539Y-93792231D01*
X141943308Y-93792231D01*
X141937928Y-93484746D01*
X141932549Y-93177261D01*
X141875399Y-93147707D01*
X141833203Y-93127413D01*
X141808230Y-93118204D01*
X141807509Y-93118154D01*
X141804071Y-93136662D01*
G37*
X141804071Y-93136662D02*
X141801089Y-93188068D01*
X141798753Y-93266192D01*
X141797251Y-93364857D01*
X141796769Y-93468343D01*
X141796769Y-93818533D01*
X141858599Y-93880363D01*
X141901207Y-93918462D01*
X141938610Y-93933895D01*
X141989730Y-93932918D01*
X142010022Y-93930433D01*
X142073446Y-93923200D01*
X142125905Y-93919055D01*
X142138692Y-93918672D01*
X142181801Y-93921176D01*
X142243456Y-93927462D01*
X142267362Y-93930433D01*
X142326078Y-93935028D01*
X142365536Y-93925046D01*
X142404662Y-93894228D01*
X142418785Y-93880363D01*
X142480615Y-93818533D01*
X142480615Y-93163503D01*
X142430850Y-93140829D01*
X142387998Y-93124034D01*
X142362927Y-93118154D01*
X142356499Y-93136736D01*
X142350491Y-93188655D01*
X142345303Y-93268172D01*
X142341336Y-93369546D01*
X142339423Y-93455192D01*
X142334077Y-93792231D01*
X142287440Y-93798825D01*
X142245024Y-93794214D01*
X142224240Y-93779287D01*
X142218430Y-93751377D01*
X142213470Y-93691925D01*
X142209754Y-93608466D01*
X142207676Y-93508532D01*
X142207376Y-93457104D01*
X142207077Y-93161054D01*
X142145546Y-93139604D01*
X142101996Y-93125020D01*
X142078306Y-93118219D01*
X142077623Y-93118154D01*
X142075246Y-93136642D01*
X142072634Y-93187906D01*
X142070005Y-93265649D01*
X142067579Y-93363574D01*
X142065885Y-93455192D01*
X142060539Y-93792231D01*
X141943308Y-93792231D01*
X141937928Y-93484746D01*
X141932549Y-93177261D01*
X141875399Y-93147707D01*
X141833203Y-93127413D01*
X141808230Y-93118204D01*
X141807509Y-93118154D01*
X141804071Y-93136662D01*
G36*
X141312667Y-93133528D02*
G01*
X141256410Y-93159117D01*
X141212253Y-93190124D01*
X141179899Y-93224795D01*
X141157562Y-93269520D01*
X141143454Y-93330692D01*
X141135789Y-93414701D01*
X141132780Y-93527940D01*
X141132462Y-93602509D01*
X141132462Y-93893420D01*
X141182227Y-93916095D01*
X141221424Y-93932667D01*
X141240843Y-93938769D01*
X141244558Y-93920610D01*
X141247505Y-93871648D01*
X141249309Y-93800153D01*
X141249692Y-93743385D01*
X141251339Y-93661371D01*
X141255778Y-93596309D01*
X141262260Y-93556467D01*
X141267410Y-93548000D01*
X141302023Y-93556646D01*
X141356360Y-93578823D01*
X141419278Y-93608886D01*
X141479632Y-93641192D01*
X141526279Y-93670098D01*
X141548074Y-93689961D01*
X141548161Y-93690175D01*
X141546286Y-93726935D01*
X141529475Y-93762026D01*
X141499961Y-93790528D01*
X141456884Y-93800061D01*
X141420068Y-93798950D01*
X141367926Y-93798133D01*
X141340556Y-93810349D01*
X141324118Y-93842624D01*
X141322045Y-93848710D01*
X141314919Y-93894739D01*
X141333976Y-93922687D01*
X141383647Y-93936007D01*
X141437303Y-93938470D01*
X141533858Y-93920210D01*
X141583841Y-93894131D01*
X141645571Y-93832868D01*
X141678310Y-93757670D01*
X141681247Y-93678211D01*
X141653576Y-93604167D01*
X141611953Y-93557769D01*
X141570396Y-93531793D01*
X141505078Y-93498907D01*
X141428962Y-93465557D01*
X141416274Y-93460461D01*
X141332667Y-93423565D01*
X141284470Y-93391046D01*
X141268970Y-93358718D01*
X141283450Y-93322394D01*
X141308308Y-93294000D01*
X141367061Y-93259039D01*
X141431707Y-93256417D01*
X141490992Y-93283358D01*
X141533661Y-93337088D01*
X141539261Y-93350950D01*
X141571867Y-93401936D01*
X141619470Y-93439787D01*
X141679539Y-93470850D01*
X141679539Y-93382768D01*
X141676003Y-93328951D01*
X141660844Y-93286534D01*
X141627232Y-93241279D01*
X141594965Y-93206420D01*
X141544791Y-93157062D01*
X141505807Y-93130547D01*
X141463936Y-93119911D01*
X141416540Y-93118154D01*
X141312667Y-93133528D01*
G37*
X141312667Y-93133528D02*
X141256410Y-93159117D01*
X141212253Y-93190124D01*
X141179899Y-93224795D01*
X141157562Y-93269520D01*
X141143454Y-93330692D01*
X141135789Y-93414701D01*
X141132780Y-93527940D01*
X141132462Y-93602509D01*
X141132462Y-93893420D01*
X141182227Y-93916095D01*
X141221424Y-93932667D01*
X141240843Y-93938769D01*
X141244558Y-93920610D01*
X141247505Y-93871648D01*
X141249309Y-93800153D01*
X141249692Y-93743385D01*
X141251339Y-93661371D01*
X141255778Y-93596309D01*
X141262260Y-93556467D01*
X141267410Y-93548000D01*
X141302023Y-93556646D01*
X141356360Y-93578823D01*
X141419278Y-93608886D01*
X141479632Y-93641192D01*
X141526279Y-93670098D01*
X141548074Y-93689961D01*
X141548161Y-93690175D01*
X141546286Y-93726935D01*
X141529475Y-93762026D01*
X141499961Y-93790528D01*
X141456884Y-93800061D01*
X141420068Y-93798950D01*
X141367926Y-93798133D01*
X141340556Y-93810349D01*
X141324118Y-93842624D01*
X141322045Y-93848710D01*
X141314919Y-93894739D01*
X141333976Y-93922687D01*
X141383647Y-93936007D01*
X141437303Y-93938470D01*
X141533858Y-93920210D01*
X141583841Y-93894131D01*
X141645571Y-93832868D01*
X141678310Y-93757670D01*
X141681247Y-93678211D01*
X141653576Y-93604167D01*
X141611953Y-93557769D01*
X141570396Y-93531793D01*
X141505078Y-93498907D01*
X141428962Y-93465557D01*
X141416274Y-93460461D01*
X141332667Y-93423565D01*
X141284470Y-93391046D01*
X141268970Y-93358718D01*
X141283450Y-93322394D01*
X141308308Y-93294000D01*
X141367061Y-93259039D01*
X141431707Y-93256417D01*
X141490992Y-93283358D01*
X141533661Y-93337088D01*
X141539261Y-93350950D01*
X141571867Y-93401936D01*
X141619470Y-93439787D01*
X141679539Y-93470850D01*
X141679539Y-93382768D01*
X141676003Y-93328951D01*
X141660844Y-93286534D01*
X141627232Y-93241279D01*
X141594965Y-93206420D01*
X141544791Y-93157062D01*
X141505807Y-93130547D01*
X141463936Y-93119911D01*
X141416540Y-93118154D01*
X141312667Y-93133528D01*
G36*
X140629193Y-93136782D02*
G01*
X140605839Y-93146988D01*
X140550098Y-93191134D01*
X140502431Y-93254967D01*
X140472952Y-93323087D01*
X140468154Y-93356670D01*
X140484240Y-93403556D01*
X140519525Y-93428365D01*
X140557356Y-93443387D01*
X140574679Y-93446155D01*
X140583114Y-93426066D01*
X140599770Y-93382351D01*
X140607077Y-93362598D01*
X140648052Y-93294271D01*
X140707378Y-93260191D01*
X140783448Y-93261239D01*
X140789082Y-93262581D01*
X140829695Y-93281836D01*
X140859552Y-93319375D01*
X140879945Y-93379809D01*
X140892164Y-93467751D01*
X140897500Y-93587813D01*
X140898000Y-93651698D01*
X140898248Y-93752403D01*
X140899874Y-93821054D01*
X140904199Y-93864673D01*
X140912546Y-93890282D01*
X140926235Y-93904903D01*
X140946589Y-93915558D01*
X140947766Y-93916095D01*
X140986962Y-93932667D01*
X141006381Y-93938769D01*
X141009365Y-93920319D01*
X141011919Y-93869323D01*
X141013860Y-93792308D01*
X141015003Y-93695805D01*
X141015231Y-93625184D01*
X141014068Y-93488525D01*
X141009521Y-93384851D01*
X141000001Y-93308108D01*
X140983919Y-93252246D01*
X140959687Y-93211212D01*
X140925714Y-93178954D01*
X140892167Y-93156440D01*
X140811501Y-93126476D01*
X140717619Y-93119718D01*
X140629193Y-93136782D01*
G37*
X140629193Y-93136782D02*
X140605839Y-93146988D01*
X140550098Y-93191134D01*
X140502431Y-93254967D01*
X140472952Y-93323087D01*
X140468154Y-93356670D01*
X140484240Y-93403556D01*
X140519525Y-93428365D01*
X140557356Y-93443387D01*
X140574679Y-93446155D01*
X140583114Y-93426066D01*
X140599770Y-93382351D01*
X140607077Y-93362598D01*
X140648052Y-93294271D01*
X140707378Y-93260191D01*
X140783448Y-93261239D01*
X140789082Y-93262581D01*
X140829695Y-93281836D01*
X140859552Y-93319375D01*
X140879945Y-93379809D01*
X140892164Y-93467751D01*
X140897500Y-93587813D01*
X140898000Y-93651698D01*
X140898248Y-93752403D01*
X140899874Y-93821054D01*
X140904199Y-93864673D01*
X140912546Y-93890282D01*
X140926235Y-93904903D01*
X140946589Y-93915558D01*
X140947766Y-93916095D01*
X140986962Y-93932667D01*
X141006381Y-93938769D01*
X141009365Y-93920319D01*
X141011919Y-93869323D01*
X141013860Y-93792308D01*
X141015003Y-93695805D01*
X141015231Y-93625184D01*
X141014068Y-93488525D01*
X141009521Y-93384851D01*
X141000001Y-93308108D01*
X140983919Y-93252246D01*
X140959687Y-93211212D01*
X140925714Y-93178954D01*
X140892167Y-93156440D01*
X140811501Y-93126476D01*
X140717619Y-93119718D01*
X140629193Y-93136782D01*
G36*
X139954776Y-93147838D02*
G01*
X139877472Y-93198361D01*
X139840186Y-93243590D01*
X139810647Y-93325663D01*
X139808301Y-93390607D01*
X139813615Y-93477445D01*
X140013885Y-93565103D01*
X140111261Y-93609887D01*
X140174887Y-93645913D01*
X140207971Y-93677117D01*
X140213720Y-93707436D01*
X140195342Y-93740805D01*
X140175077Y-93762923D01*
X140116111Y-93798393D01*
X140051976Y-93800879D01*
X139993074Y-93773235D01*
X139949803Y-93718320D01*
X139942064Y-93698928D01*
X139904994Y-93638364D01*
X139862346Y-93612552D01*
X139803846Y-93590471D01*
X139803846Y-93674184D01*
X139809018Y-93731150D01*
X139829277Y-93779189D01*
X139871738Y-93834346D01*
X139878049Y-93841514D01*
X139925280Y-93890585D01*
X139965879Y-93916920D01*
X140016672Y-93929035D01*
X140058780Y-93933003D01*
X140134098Y-93933991D01*
X140187714Y-93921466D01*
X140221162Y-93902869D01*
X140273732Y-93861975D01*
X140310121Y-93817748D01*
X140333150Y-93762126D01*
X140345641Y-93687047D01*
X140350413Y-93584449D01*
X140350794Y-93532376D01*
X140349499Y-93469948D01*
X140231529Y-93469948D01*
X140230161Y-93503438D01*
X140226751Y-93508923D01*
X140204247Y-93501472D01*
X140155818Y-93481753D01*
X140091092Y-93453718D01*
X140077557Y-93447692D01*
X139995756Y-93406096D01*
X139950688Y-93369538D01*
X139940783Y-93335296D01*
X139964474Y-93300648D01*
X139984040Y-93285339D01*
X140054640Y-93254721D01*
X140120720Y-93259780D01*
X140176041Y-93297151D01*
X140214364Y-93363473D01*
X140226651Y-93416116D01*
X140231529Y-93469948D01*
X140349499Y-93469948D01*
X140348270Y-93410720D01*
X140338968Y-93320710D01*
X140320540Y-93255167D01*
X140290640Y-93206912D01*
X140246920Y-93168767D01*
X140227859Y-93156440D01*
X140141274Y-93124336D01*
X140046478Y-93122316D01*
X139954776Y-93147838D01*
G37*
X139954776Y-93147838D02*
X139877472Y-93198361D01*
X139840186Y-93243590D01*
X139810647Y-93325663D01*
X139808301Y-93390607D01*
X139813615Y-93477445D01*
X140013885Y-93565103D01*
X140111261Y-93609887D01*
X140174887Y-93645913D01*
X140207971Y-93677117D01*
X140213720Y-93707436D01*
X140195342Y-93740805D01*
X140175077Y-93762923D01*
X140116111Y-93798393D01*
X140051976Y-93800879D01*
X139993074Y-93773235D01*
X139949803Y-93718320D01*
X139942064Y-93698928D01*
X139904994Y-93638364D01*
X139862346Y-93612552D01*
X139803846Y-93590471D01*
X139803846Y-93674184D01*
X139809018Y-93731150D01*
X139829277Y-93779189D01*
X139871738Y-93834346D01*
X139878049Y-93841514D01*
X139925280Y-93890585D01*
X139965879Y-93916920D01*
X140016672Y-93929035D01*
X140058780Y-93933003D01*
X140134098Y-93933991D01*
X140187714Y-93921466D01*
X140221162Y-93902869D01*
X140273732Y-93861975D01*
X140310121Y-93817748D01*
X140333150Y-93762126D01*
X140345641Y-93687047D01*
X140350413Y-93584449D01*
X140350794Y-93532376D01*
X140349499Y-93469948D01*
X140231529Y-93469948D01*
X140230161Y-93503438D01*
X140226751Y-93508923D01*
X140204247Y-93501472D01*
X140155818Y-93481753D01*
X140091092Y-93453718D01*
X140077557Y-93447692D01*
X139995756Y-93406096D01*
X139950688Y-93369538D01*
X139940783Y-93335296D01*
X139964474Y-93300648D01*
X139984040Y-93285339D01*
X140054640Y-93254721D01*
X140120720Y-93259780D01*
X140176041Y-93297151D01*
X140214364Y-93363473D01*
X140226651Y-93416116D01*
X140231529Y-93469948D01*
X140349499Y-93469948D01*
X140348270Y-93410720D01*
X140338968Y-93320710D01*
X140320540Y-93255167D01*
X140290640Y-93206912D01*
X140246920Y-93168767D01*
X140227859Y-93156440D01*
X140141274Y-93124336D01*
X140046478Y-93122316D01*
X139954776Y-93147838D01*
G36*
X144060122Y-86787776D02*
G01*
X143954388Y-86788355D01*
X143877868Y-86789922D01*
X143825628Y-86792972D01*
X143792737Y-86797996D01*
X143774263Y-86805489D01*
X143765273Y-86815944D01*
X143760837Y-86829853D01*
X143760406Y-86831654D01*
X143753667Y-86864145D01*
X143741192Y-86928252D01*
X143724281Y-87017151D01*
X143704229Y-87124019D01*
X143682336Y-87242033D01*
X143681571Y-87246178D01*
X143659641Y-87361831D01*
X143639123Y-87464014D01*
X143621341Y-87546598D01*
X143607619Y-87603456D01*
X143599282Y-87628458D01*
X143598884Y-87628901D01*
X143574323Y-87641110D01*
X143523685Y-87661456D01*
X143457905Y-87685545D01*
X143457539Y-87685674D01*
X143374683Y-87716818D01*
X143277000Y-87756491D01*
X143184923Y-87796381D01*
X143180566Y-87798353D01*
X143030593Y-87866420D01*
X142698502Y-87639639D01*
X142596626Y-87570504D01*
X142504343Y-87508697D01*
X142426997Y-87457733D01*
X142369936Y-87421127D01*
X142338505Y-87402394D01*
X142335521Y-87401004D01*
X142312679Y-87407190D01*
X142270018Y-87437035D01*
X142205872Y-87491947D01*
X142118579Y-87573334D01*
X142029465Y-87659922D01*
X141943559Y-87745247D01*
X141866673Y-87823108D01*
X141803436Y-87888697D01*
X141758477Y-87937205D01*
X141736424Y-87963825D01*
X141735604Y-87965195D01*
X141733166Y-87983463D01*
X141742350Y-88013295D01*
X141765426Y-88058721D01*
X141804663Y-88123770D01*
X141862330Y-88212470D01*
X141939205Y-88326657D01*
X142007430Y-88427162D01*
X142068418Y-88517303D01*
X142118644Y-88591849D01*
X142154584Y-88645565D01*
X142172713Y-88673218D01*
X142173854Y-88675095D01*
X142171641Y-88701590D01*
X142154862Y-88753086D01*
X142126858Y-88819851D01*
X142116878Y-88841172D01*
X142073328Y-88936159D01*
X142026866Y-89043937D01*
X141989123Y-89137192D01*
X141961927Y-89206406D01*
X141940325Y-89259006D01*
X141927842Y-89286497D01*
X141926291Y-89288616D01*
X141903332Y-89292124D01*
X141849214Y-89301738D01*
X141771132Y-89316089D01*
X141676281Y-89333807D01*
X141571857Y-89353525D01*
X141465056Y-89373874D01*
X141363074Y-89393486D01*
X141273106Y-89410991D01*
X141202347Y-89425022D01*
X141157994Y-89434209D01*
X141147115Y-89436807D01*
X141135878Y-89443218D01*
X141127395Y-89457697D01*
X141121286Y-89485133D01*
X141117168Y-89530411D01*
X141114659Y-89598420D01*
X141113379Y-89694047D01*
X141112946Y-89822180D01*
X141112923Y-89874701D01*
X141112923Y-90301845D01*
X141215500Y-90322091D01*
X141272569Y-90333070D01*
X141357731Y-90349095D01*
X141460628Y-90368233D01*
X141570904Y-90388551D01*
X141601385Y-90394132D01*
X141703145Y-90413917D01*
X141791795Y-90433373D01*
X141859892Y-90450697D01*
X141899996Y-90464088D01*
X141906677Y-90468079D01*
X141923081Y-90496342D01*
X141946601Y-90551109D01*
X141972684Y-90621588D01*
X141977858Y-90636769D01*
X142012044Y-90730896D01*
X142054477Y-90837101D01*
X142096003Y-90932473D01*
X142096208Y-90932916D01*
X142165360Y-91082525D01*
X141710488Y-91751617D01*
X142002500Y-92044116D01*
X142090820Y-92131170D01*
X142171375Y-92207909D01*
X142239640Y-92270237D01*
X142291092Y-92314056D01*
X142321206Y-92335270D01*
X142325526Y-92336616D01*
X142350889Y-92326016D01*
X142402642Y-92296547D01*
X142475132Y-92251705D01*
X142562706Y-92194984D01*
X142657388Y-92131462D01*
X142753484Y-92066668D01*
X142839163Y-92010287D01*
X142908984Y-91965788D01*
X142957506Y-91936639D01*
X142979218Y-91926308D01*
X143005707Y-91935050D01*
X143055938Y-91958087D01*
X143119549Y-91990631D01*
X143126292Y-91994249D01*
X143211954Y-92037210D01*
X143270694Y-92058279D01*
X143307228Y-92058503D01*
X143326269Y-92038928D01*
X143326380Y-92038654D01*
X143335898Y-92015472D01*
X143358597Y-91960441D01*
X143392718Y-91877822D01*
X143436500Y-91771872D01*
X143488184Y-91646852D01*
X143546008Y-91507020D01*
X143602009Y-91371637D01*
X143663553Y-91222234D01*
X143720061Y-91083832D01*
X143769839Y-90960673D01*
X143811194Y-90857002D01*
X143842432Y-90777059D01*
X143861859Y-90725088D01*
X143867846Y-90705692D01*
X143852832Y-90683443D01*
X143813561Y-90647982D01*
X143761193Y-90608887D01*
X143612059Y-90485245D01*
X143495489Y-90343522D01*
X143412882Y-90186704D01*
X143365634Y-90017775D01*
X143355143Y-89839722D01*
X143362769Y-89757539D01*
X143404318Y-89587031D01*
X143475877Y-89436459D01*
X143573005Y-89307309D01*
X143691266Y-89201064D01*
X143826220Y-89119210D01*
X143973429Y-89063232D01*
X144128456Y-89034615D01*
X144286861Y-89034844D01*
X144444206Y-89065405D01*
X144596054Y-89127782D01*
X144737965Y-89223460D01*
X144797197Y-89277572D01*
X144910797Y-89416520D01*
X144989894Y-89568361D01*
X145035014Y-89728667D01*
X145046684Y-89893012D01*
X145025431Y-90056971D01*
X144971780Y-90216118D01*
X144886260Y-90366025D01*
X144769395Y-90502267D01*
X144638807Y-90608887D01*
X144584412Y-90649642D01*
X144545986Y-90684718D01*
X144532154Y-90705726D01*
X144539397Y-90728635D01*
X144559995Y-90783365D01*
X144592254Y-90865672D01*
X144634479Y-90971315D01*
X144684977Y-91096050D01*
X144742052Y-91235636D01*
X144798146Y-91371670D01*
X144860033Y-91521201D01*
X144917356Y-91659767D01*
X144968356Y-91783107D01*
X145011273Y-91886964D01*
X145044347Y-91967080D01*
X145065819Y-92019195D01*
X145073775Y-92038654D01*
X145092571Y-92058423D01*
X145128926Y-92058365D01*
X145187521Y-92037441D01*
X145273032Y-91994613D01*
X145273708Y-91994249D01*
X145338093Y-91961012D01*
X145390139Y-91936802D01*
X145419488Y-91926404D01*
X145420783Y-91926308D01*
X145442876Y-91936855D01*
X145491652Y-91966184D01*
X145561669Y-92010827D01*
X145647486Y-92067314D01*
X145742612Y-92131462D01*
X145839460Y-92196411D01*
X145926747Y-92252896D01*
X145998819Y-92297421D01*
X146050023Y-92326490D01*
X146074474Y-92336616D01*
X146096990Y-92323307D01*
X146142258Y-92286112D01*
X146205756Y-92229128D01*
X146282961Y-92156449D01*
X146369349Y-92072171D01*
X146397601Y-92044016D01*
X146689713Y-91751416D01*
X146467369Y-91425104D01*
X146399798Y-91324897D01*
X146340493Y-91234963D01*
X146292783Y-91160510D01*
X146259993Y-91106751D01*
X146245452Y-91078894D01*
X146245026Y-91076912D01*
X146252692Y-91050655D01*
X146273311Y-90997837D01*
X146303315Y-90927310D01*
X146324375Y-90880093D01*
X146363752Y-90789694D01*
X146400835Y-90698366D01*
X146429585Y-90621200D01*
X146437395Y-90597692D01*
X146459583Y-90534916D01*
X146481273Y-90486411D01*
X146493187Y-90468079D01*
X146519477Y-90456859D01*
X146576858Y-90440954D01*
X146657882Y-90422167D01*
X146755105Y-90402299D01*
X146798615Y-90394132D01*
X146909104Y-90373829D01*
X147015084Y-90354170D01*
X147106199Y-90337088D01*
X147172092Y-90324518D01*
X147184500Y-90322091D01*
X147287077Y-90301845D01*
X147287077Y-89874701D01*
X147286847Y-89734246D01*
X147285901Y-89627979D01*
X147283859Y-89551013D01*
X147280338Y-89498460D01*
X147274957Y-89465433D01*
X147267334Y-89447045D01*
X147257088Y-89438408D01*
X147252885Y-89436807D01*
X147227530Y-89431127D01*
X147171516Y-89419795D01*
X147092036Y-89404179D01*
X146996288Y-89385647D01*
X146891467Y-89365569D01*
X146784768Y-89345312D01*
X146683387Y-89326246D01*
X146594521Y-89309739D01*
X146525363Y-89297159D01*
X146483111Y-89289875D01*
X146473710Y-89288616D01*
X146465193Y-89271763D01*
X146446340Y-89226870D01*
X146420676Y-89162430D01*
X146410877Y-89137192D01*
X146371352Y-89039686D01*
X146324808Y-88931959D01*
X146283123Y-88841172D01*
X146252450Y-88771753D01*
X146232044Y-88714710D01*
X146225232Y-88679777D01*
X146226318Y-88675095D01*
X146240715Y-88652991D01*
X146273588Y-88603831D01*
X146321410Y-88532848D01*
X146380652Y-88445278D01*
X146447785Y-88346357D01*
X146461059Y-88326830D01*
X146538954Y-88211140D01*
X146596213Y-88123044D01*
X146635119Y-88058486D01*
X146657956Y-88013411D01*
X146667006Y-87983763D01*
X146664552Y-87965485D01*
X146664489Y-87965369D01*
X146645173Y-87941361D01*
X146602449Y-87894947D01*
X146540949Y-87830937D01*
X146465302Y-87754145D01*
X146380139Y-87669382D01*
X146370535Y-87659922D01*
X146263210Y-87555989D01*
X146180385Y-87479675D01*
X146120395Y-87429571D01*
X146081577Y-87404270D01*
X146064480Y-87401004D01*
X146039527Y-87415250D01*
X145987745Y-87448156D01*
X145914480Y-87496208D01*
X145825080Y-87555890D01*
X145724889Y-87623688D01*
X145701499Y-87639639D01*
X145369407Y-87866420D01*
X145219435Y-87798353D01*
X145128230Y-87758685D01*
X145030331Y-87718791D01*
X144946169Y-87686983D01*
X144942462Y-87685674D01*
X144876631Y-87661576D01*
X144825884Y-87641200D01*
X144801158Y-87628936D01*
X144801116Y-87628901D01*
X144793271Y-87606734D01*
X144779934Y-87552217D01*
X144762430Y-87471480D01*
X144742083Y-87370650D01*
X144720218Y-87255856D01*
X144718429Y-87246178D01*
X144696496Y-87127904D01*
X144676360Y-87020542D01*
X144659320Y-86930917D01*
X144646672Y-86865851D01*
X144639716Y-86832168D01*
X144639594Y-86831654D01*
X144635361Y-86817325D01*
X144627129Y-86806507D01*
X144609967Y-86798706D01*
X144578942Y-86793429D01*
X144529122Y-86790182D01*
X144455576Y-86788472D01*
X144353371Y-86787807D01*
X144217575Y-86787693D01*
X144200000Y-86787692D01*
X144060122Y-86787776D01*
G37*
X144060122Y-86787776D02*
X143954388Y-86788355D01*
X143877868Y-86789922D01*
X143825628Y-86792972D01*
X143792737Y-86797996D01*
X143774263Y-86805489D01*
X143765273Y-86815944D01*
X143760837Y-86829853D01*
X143760406Y-86831654D01*
X143753667Y-86864145D01*
X143741192Y-86928252D01*
X143724281Y-87017151D01*
X143704229Y-87124019D01*
X143682336Y-87242033D01*
X143681571Y-87246178D01*
X143659641Y-87361831D01*
X143639123Y-87464014D01*
X143621341Y-87546598D01*
X143607619Y-87603456D01*
X143599282Y-87628458D01*
X143598884Y-87628901D01*
X143574323Y-87641110D01*
X143523685Y-87661456D01*
X143457905Y-87685545D01*
X143457539Y-87685674D01*
X143374683Y-87716818D01*
X143277000Y-87756491D01*
X143184923Y-87796381D01*
X143180566Y-87798353D01*
X143030593Y-87866420D01*
X142698502Y-87639639D01*
X142596626Y-87570504D01*
X142504343Y-87508697D01*
X142426997Y-87457733D01*
X142369936Y-87421127D01*
X142338505Y-87402394D01*
X142335521Y-87401004D01*
X142312679Y-87407190D01*
X142270018Y-87437035D01*
X142205872Y-87491947D01*
X142118579Y-87573334D01*
X142029465Y-87659922D01*
X141943559Y-87745247D01*
X141866673Y-87823108D01*
X141803436Y-87888697D01*
X141758477Y-87937205D01*
X141736424Y-87963825D01*
X141735604Y-87965195D01*
X141733166Y-87983463D01*
X141742350Y-88013295D01*
X141765426Y-88058721D01*
X141804663Y-88123770D01*
X141862330Y-88212470D01*
X141939205Y-88326657D01*
X142007430Y-88427162D01*
X142068418Y-88517303D01*
X142118644Y-88591849D01*
X142154584Y-88645565D01*
X142172713Y-88673218D01*
X142173854Y-88675095D01*
X142171641Y-88701590D01*
X142154862Y-88753086D01*
X142126858Y-88819851D01*
X142116878Y-88841172D01*
X142073328Y-88936159D01*
X142026866Y-89043937D01*
X141989123Y-89137192D01*
X141961927Y-89206406D01*
X141940325Y-89259006D01*
X141927842Y-89286497D01*
X141926291Y-89288616D01*
X141903332Y-89292124D01*
X141849214Y-89301738D01*
X141771132Y-89316089D01*
X141676281Y-89333807D01*
X141571857Y-89353525D01*
X141465056Y-89373874D01*
X141363074Y-89393486D01*
X141273106Y-89410991D01*
X141202347Y-89425022D01*
X141157994Y-89434209D01*
X141147115Y-89436807D01*
X141135878Y-89443218D01*
X141127395Y-89457697D01*
X141121286Y-89485133D01*
X141117168Y-89530411D01*
X141114659Y-89598420D01*
X141113379Y-89694047D01*
X141112946Y-89822180D01*
X141112923Y-89874701D01*
X141112923Y-90301845D01*
X141215500Y-90322091D01*
X141272569Y-90333070D01*
X141357731Y-90349095D01*
X141460628Y-90368233D01*
X141570904Y-90388551D01*
X141601385Y-90394132D01*
X141703145Y-90413917D01*
X141791795Y-90433373D01*
X141859892Y-90450697D01*
X141899996Y-90464088D01*
X141906677Y-90468079D01*
X141923081Y-90496342D01*
X141946601Y-90551109D01*
X141972684Y-90621588D01*
X141977858Y-90636769D01*
X142012044Y-90730896D01*
X142054477Y-90837101D01*
X142096003Y-90932473D01*
X142096208Y-90932916D01*
X142165360Y-91082525D01*
X141710488Y-91751617D01*
X142002500Y-92044116D01*
X142090820Y-92131170D01*
X142171375Y-92207909D01*
X142239640Y-92270237D01*
X142291092Y-92314056D01*
X142321206Y-92335270D01*
X142325526Y-92336616D01*
X142350889Y-92326016D01*
X142402642Y-92296547D01*
X142475132Y-92251705D01*
X142562706Y-92194984D01*
X142657388Y-92131462D01*
X142753484Y-92066668D01*
X142839163Y-92010287D01*
X142908984Y-91965788D01*
X142957506Y-91936639D01*
X142979218Y-91926308D01*
X143005707Y-91935050D01*
X143055938Y-91958087D01*
X143119549Y-91990631D01*
X143126292Y-91994249D01*
X143211954Y-92037210D01*
X143270694Y-92058279D01*
X143307228Y-92058503D01*
X143326269Y-92038928D01*
X143326380Y-92038654D01*
X143335898Y-92015472D01*
X143358597Y-91960441D01*
X143392718Y-91877822D01*
X143436500Y-91771872D01*
X143488184Y-91646852D01*
X143546008Y-91507020D01*
X143602009Y-91371637D01*
X143663553Y-91222234D01*
X143720061Y-91083832D01*
X143769839Y-90960673D01*
X143811194Y-90857002D01*
X143842432Y-90777059D01*
X143861859Y-90725088D01*
X143867846Y-90705692D01*
X143852832Y-90683443D01*
X143813561Y-90647982D01*
X143761193Y-90608887D01*
X143612059Y-90485245D01*
X143495489Y-90343522D01*
X143412882Y-90186704D01*
X143365634Y-90017775D01*
X143355143Y-89839722D01*
X143362769Y-89757539D01*
X143404318Y-89587031D01*
X143475877Y-89436459D01*
X143573005Y-89307309D01*
X143691266Y-89201064D01*
X143826220Y-89119210D01*
X143973429Y-89063232D01*
X144128456Y-89034615D01*
X144286861Y-89034844D01*
X144444206Y-89065405D01*
X144596054Y-89127782D01*
X144737965Y-89223460D01*
X144797197Y-89277572D01*
X144910797Y-89416520D01*
X144989894Y-89568361D01*
X145035014Y-89728667D01*
X145046684Y-89893012D01*
X145025431Y-90056971D01*
X144971780Y-90216118D01*
X144886260Y-90366025D01*
X144769395Y-90502267D01*
X144638807Y-90608887D01*
X144584412Y-90649642D01*
X144545986Y-90684718D01*
X144532154Y-90705726D01*
X144539397Y-90728635D01*
X144559995Y-90783365D01*
X144592254Y-90865672D01*
X144634479Y-90971315D01*
X144684977Y-91096050D01*
X144742052Y-91235636D01*
X144798146Y-91371670D01*
X144860033Y-91521201D01*
X144917356Y-91659767D01*
X144968356Y-91783107D01*
X145011273Y-91886964D01*
X145044347Y-91967080D01*
X145065819Y-92019195D01*
X145073775Y-92038654D01*
X145092571Y-92058423D01*
X145128926Y-92058365D01*
X145187521Y-92037441D01*
X145273032Y-91994613D01*
X145273708Y-91994249D01*
X145338093Y-91961012D01*
X145390139Y-91936802D01*
X145419488Y-91926404D01*
X145420783Y-91926308D01*
X145442876Y-91936855D01*
X145491652Y-91966184D01*
X145561669Y-92010827D01*
X145647486Y-92067314D01*
X145742612Y-92131462D01*
X145839460Y-92196411D01*
X145926747Y-92252896D01*
X145998819Y-92297421D01*
X146050023Y-92326490D01*
X146074474Y-92336616D01*
X146096990Y-92323307D01*
X146142258Y-92286112D01*
X146205756Y-92229128D01*
X146282961Y-92156449D01*
X146369349Y-92072171D01*
X146397601Y-92044016D01*
X146689713Y-91751416D01*
X146467369Y-91425104D01*
X146399798Y-91324897D01*
X146340493Y-91234963D01*
X146292783Y-91160510D01*
X146259993Y-91106751D01*
X146245452Y-91078894D01*
X146245026Y-91076912D01*
X146252692Y-91050655D01*
X146273311Y-90997837D01*
X146303315Y-90927310D01*
X146324375Y-90880093D01*
X146363752Y-90789694D01*
X146400835Y-90698366D01*
X146429585Y-90621200D01*
X146437395Y-90597692D01*
X146459583Y-90534916D01*
X146481273Y-90486411D01*
X146493187Y-90468079D01*
X146519477Y-90456859D01*
X146576858Y-90440954D01*
X146657882Y-90422167D01*
X146755105Y-90402299D01*
X146798615Y-90394132D01*
X146909104Y-90373829D01*
X147015084Y-90354170D01*
X147106199Y-90337088D01*
X147172092Y-90324518D01*
X147184500Y-90322091D01*
X147287077Y-90301845D01*
X147287077Y-89874701D01*
X147286847Y-89734246D01*
X147285901Y-89627979D01*
X147283859Y-89551013D01*
X147280338Y-89498460D01*
X147274957Y-89465433D01*
X147267334Y-89447045D01*
X147257088Y-89438408D01*
X147252885Y-89436807D01*
X147227530Y-89431127D01*
X147171516Y-89419795D01*
X147092036Y-89404179D01*
X146996288Y-89385647D01*
X146891467Y-89365569D01*
X146784768Y-89345312D01*
X146683387Y-89326246D01*
X146594521Y-89309739D01*
X146525363Y-89297159D01*
X146483111Y-89289875D01*
X146473710Y-89288616D01*
X146465193Y-89271763D01*
X146446340Y-89226870D01*
X146420676Y-89162430D01*
X146410877Y-89137192D01*
X146371352Y-89039686D01*
X146324808Y-88931959D01*
X146283123Y-88841172D01*
X146252450Y-88771753D01*
X146232044Y-88714710D01*
X146225232Y-88679777D01*
X146226318Y-88675095D01*
X146240715Y-88652991D01*
X146273588Y-88603831D01*
X146321410Y-88532848D01*
X146380652Y-88445278D01*
X146447785Y-88346357D01*
X146461059Y-88326830D01*
X146538954Y-88211140D01*
X146596213Y-88123044D01*
X146635119Y-88058486D01*
X146657956Y-88013411D01*
X146667006Y-87983763D01*
X146664552Y-87965485D01*
X146664489Y-87965369D01*
X146645173Y-87941361D01*
X146602449Y-87894947D01*
X146540949Y-87830937D01*
X146465302Y-87754145D01*
X146380139Y-87669382D01*
X146370535Y-87659922D01*
X146263210Y-87555989D01*
X146180385Y-87479675D01*
X146120395Y-87429571D01*
X146081577Y-87404270D01*
X146064480Y-87401004D01*
X146039527Y-87415250D01*
X145987745Y-87448156D01*
X145914480Y-87496208D01*
X145825080Y-87555890D01*
X145724889Y-87623688D01*
X145701499Y-87639639D01*
X145369407Y-87866420D01*
X145219435Y-87798353D01*
X145128230Y-87758685D01*
X145030331Y-87718791D01*
X144946169Y-87686983D01*
X144942462Y-87685674D01*
X144876631Y-87661576D01*
X144825884Y-87641200D01*
X144801158Y-87628936D01*
X144801116Y-87628901D01*
X144793271Y-87606734D01*
X144779934Y-87552217D01*
X144762430Y-87471480D01*
X144742083Y-87370650D01*
X144720218Y-87255856D01*
X144718429Y-87246178D01*
X144696496Y-87127904D01*
X144676360Y-87020542D01*
X144659320Y-86930917D01*
X144646672Y-86865851D01*
X144639716Y-86832168D01*
X144639594Y-86831654D01*
X144635361Y-86817325D01*
X144627129Y-86806507D01*
X144609967Y-86798706D01*
X144578942Y-86793429D01*
X144529122Y-86790182D01*
X144455576Y-86788472D01*
X144353371Y-86787807D01*
X144217575Y-86787693D01*
X144200000Y-86787692D01*
X144060122Y-86787776D01*
%TD*%
M02*
