%TF.GenerationSoftware,KiCad,Pcbnew,(5.1.9)-1*%
%TF.CreationDate,2022-01-01T02:22:55+09:00*%
%TF.ProjectId,DiodeORLogic,44696f64-654f-4524-9c6f-6769632e6b69,rev?*%
%TF.SameCoordinates,Original*%
%TF.FileFunction,Paste,Top*%
%TF.FilePolarity,Positive*%
%FSLAX46Y46*%
G04 Gerber Fmt 4.6, Leading zero omitted, Abs format (unit mm)*
G04 Created by KiCad (PCBNEW (5.1.9)-1) date 2022-01-01 02:22:55*
%MOMM*%
%LPD*%
G01*
G04 APERTURE LIST*
%ADD10C,0.100000*%
%ADD11R,2.000000X1.500000*%
G04 APERTURE END LIST*
D10*
%TO.C,D8*%
G36*
X130684926Y-75028281D02*
G01*
X129913580Y-74109028D01*
X130603020Y-73530519D01*
X131374366Y-74449772D01*
X130684926Y-75028281D01*
G37*
G36*
X128156980Y-77149481D02*
G01*
X127385634Y-76230228D01*
X128075074Y-75651719D01*
X128846420Y-76570972D01*
X128156980Y-77149481D01*
G37*
%TD*%
%TO.C,D7*%
G36*
X122239262Y-88282419D02*
G01*
X121057493Y-88074042D01*
X121213776Y-87187715D01*
X122395545Y-87396092D01*
X122239262Y-88282419D01*
G37*
G36*
X121666224Y-91532285D02*
G01*
X120484455Y-91323908D01*
X120640738Y-90437581D01*
X121822507Y-90645958D01*
X121666224Y-91532285D01*
G37*
%TD*%
%TO.C,D6*%
G36*
X124069615Y-103430769D02*
G01*
X123030385Y-104030769D01*
X122580385Y-103251347D01*
X123619615Y-102651347D01*
X124069615Y-103430769D01*
G37*
G36*
X125719615Y-106288653D02*
G01*
X124680385Y-106888653D01*
X124230385Y-106109231D01*
X125269615Y-105509231D01*
X125719615Y-106288653D01*
G37*
%TD*%
%TO.C,D5*%
G36*
X135127581Y-114235760D02*
G01*
X134717157Y-115363392D01*
X133871433Y-115055574D01*
X134281857Y-113927942D01*
X135127581Y-114235760D01*
G37*
G36*
X138228567Y-115364426D02*
G01*
X137818143Y-116492058D01*
X136972419Y-116184240D01*
X137382843Y-115056608D01*
X138228567Y-115364426D01*
G37*
%TD*%
%TO.C,D4*%
G36*
X150557157Y-115456608D02*
G01*
X150967581Y-116584240D01*
X150121857Y-116892058D01*
X149711433Y-115764426D01*
X150557157Y-115456608D01*
G37*
G36*
X153658143Y-114327942D02*
G01*
X154068567Y-115455574D01*
X153222843Y-115763392D01*
X152812419Y-114635760D01*
X153658143Y-114327942D01*
G37*
%TD*%
%TO.C,D3*%
G36*
X163370385Y-106129231D02*
G01*
X164409615Y-106729231D01*
X163959615Y-107508653D01*
X162920385Y-106908653D01*
X163370385Y-106129231D01*
G37*
G36*
X165020385Y-103271347D02*
G01*
X166059615Y-103871347D01*
X165609615Y-104650769D01*
X164570385Y-104050769D01*
X165020385Y-103271347D01*
G37*
%TD*%
%TO.C,D2*%
G36*
X167007493Y-90465958D02*
G01*
X168189262Y-90257581D01*
X168345545Y-91143908D01*
X167163776Y-91352285D01*
X167007493Y-90465958D01*
G37*
G36*
X166434455Y-87216092D02*
G01*
X167616224Y-87007715D01*
X167772507Y-87894042D01*
X166590738Y-88102419D01*
X166434455Y-87216092D01*
G37*
%TD*%
%TO.C,D1*%
G36*
X159863580Y-76500972D02*
G01*
X160634926Y-75581719D01*
X161324366Y-76160228D01*
X160553020Y-77079481D01*
X159863580Y-76500972D01*
G37*
G36*
X157335634Y-74379772D02*
G01*
X158106980Y-73460519D01*
X158796420Y-74039028D01*
X158025074Y-74958281D01*
X157335634Y-74379772D01*
G37*
%TD*%
%TO.C,R2*%
G36*
G01*
X144855000Y-74015000D02*
X144855000Y-73465000D01*
G75*
G02*
X145055000Y-73265000I200000J0D01*
G01*
X145455000Y-73265000D01*
G75*
G02*
X145655000Y-73465000I0J-200000D01*
G01*
X145655000Y-74015000D01*
G75*
G02*
X145455000Y-74215000I-200000J0D01*
G01*
X145055000Y-74215000D01*
G75*
G02*
X144855000Y-74015000I0J200000D01*
G01*
G37*
G36*
G01*
X143205000Y-74015000D02*
X143205000Y-73465000D01*
G75*
G02*
X143405000Y-73265000I200000J0D01*
G01*
X143805000Y-73265000D01*
G75*
G02*
X144005000Y-73465000I0J-200000D01*
G01*
X144005000Y-74015000D01*
G75*
G02*
X143805000Y-74215000I-200000J0D01*
G01*
X143405000Y-74215000D01*
G75*
G02*
X143205000Y-74015000I0J200000D01*
G01*
G37*
%TD*%
%TO.C,R1*%
G36*
G01*
X144855000Y-76775000D02*
X144855000Y-76225000D01*
G75*
G02*
X145055000Y-76025000I200000J0D01*
G01*
X145455000Y-76025000D01*
G75*
G02*
X145655000Y-76225000I0J-200000D01*
G01*
X145655000Y-76775000D01*
G75*
G02*
X145455000Y-76975000I-200000J0D01*
G01*
X145055000Y-76975000D01*
G75*
G02*
X144855000Y-76775000I0J200000D01*
G01*
G37*
G36*
G01*
X143205000Y-76775000D02*
X143205000Y-76225000D01*
G75*
G02*
X143405000Y-76025000I200000J0D01*
G01*
X143805000Y-76025000D01*
G75*
G02*
X144005000Y-76225000I0J-200000D01*
G01*
X144005000Y-76775000D01*
G75*
G02*
X143805000Y-76975000I-200000J0D01*
G01*
X143405000Y-76975000D01*
G75*
G02*
X143205000Y-76775000I0J200000D01*
G01*
G37*
%TD*%
D11*
%TO.C,J9*%
X147770000Y-51650000D03*
X147770000Y-58850000D03*
X147770000Y-61050000D03*
X140770000Y-51650000D03*
X140770000Y-55050000D03*
X140770000Y-60550000D03*
%TD*%
D10*
%TO.C,J8*%
G36*
X120036100Y-60377155D02*
G01*
X119071919Y-59228088D01*
X120604008Y-57942513D01*
X121568189Y-59091580D01*
X120036100Y-60377155D01*
G37*
G36*
X124664171Y-65892675D02*
G01*
X123699990Y-64743608D01*
X125232079Y-63458033D01*
X126196260Y-64607100D01*
X124664171Y-65892675D01*
G37*
G36*
X126078303Y-67577973D02*
G01*
X125114122Y-66428906D01*
X126646211Y-65143331D01*
X127610392Y-66292398D01*
X126078303Y-67577973D01*
G37*
G36*
X114673789Y-64876669D02*
G01*
X113709608Y-63727602D01*
X115241697Y-62442027D01*
X116205878Y-63591094D01*
X114673789Y-64876669D01*
G37*
G36*
X116859267Y-67481220D02*
G01*
X115895086Y-66332153D01*
X117427175Y-65046578D01*
X118391356Y-66195645D01*
X116859267Y-67481220D01*
G37*
G36*
X120394598Y-71694464D02*
G01*
X119430417Y-70545397D01*
X120962506Y-69259822D01*
X121926687Y-70408889D01*
X120394598Y-71694464D01*
G37*
%TD*%
%TO.C,J7*%
G36*
X104604130Y-83732070D02*
G01*
X103126918Y-83471598D01*
X103474214Y-81501982D01*
X104951426Y-81762454D01*
X104604130Y-83732070D01*
G37*
G36*
X111694746Y-84982337D02*
G01*
X110217534Y-84721865D01*
X110564830Y-82752249D01*
X112042042Y-83012721D01*
X111694746Y-84982337D01*
G37*
G36*
X113861323Y-85364363D02*
G01*
X112384111Y-85103891D01*
X112731407Y-83134275D01*
X114208619Y-83394747D01*
X113861323Y-85364363D01*
G37*
G36*
X103388593Y-90625725D02*
G01*
X101911381Y-90365253D01*
X102258677Y-88395637D01*
X103735889Y-88656109D01*
X103388593Y-90625725D01*
G37*
G36*
X106736939Y-91216129D02*
G01*
X105259727Y-90955657D01*
X105607023Y-88986041D01*
X107084235Y-89246513D01*
X106736939Y-91216129D01*
G37*
G36*
X112153382Y-92171193D02*
G01*
X110676170Y-91910721D01*
X111023466Y-89941105D01*
X112500678Y-90201577D01*
X112153382Y-92171193D01*
G37*
%TD*%
%TO.C,J6*%
G36*
X107809200Y-111539936D02*
G01*
X106510162Y-112289936D01*
X105510162Y-110557886D01*
X106809200Y-109807886D01*
X107809200Y-111539936D01*
G37*
G36*
X114044583Y-107939936D02*
G01*
X112745545Y-108689936D01*
X111745545Y-106957886D01*
X113044583Y-106207886D01*
X114044583Y-107939936D01*
G37*
G36*
X115949838Y-106839936D02*
G01*
X114650800Y-107589936D01*
X113650800Y-105857886D01*
X114949838Y-105107886D01*
X115949838Y-106839936D01*
G37*
G36*
X111309200Y-117602114D02*
G01*
X110010162Y-118352114D01*
X109010162Y-116620064D01*
X110309200Y-115870064D01*
X111309200Y-117602114D01*
G37*
G36*
X114253686Y-115902114D02*
G01*
X112954648Y-116652114D01*
X111954648Y-114920064D01*
X113253686Y-114170064D01*
X114253686Y-115902114D01*
G37*
G36*
X119016826Y-113152114D02*
G01*
X117717788Y-113902114D01*
X116717788Y-112170064D01*
X118016826Y-111420064D01*
X119016826Y-113152114D01*
G37*
%TD*%
%TO.C,J5*%
G36*
X128055491Y-130718065D02*
G01*
X127542461Y-132127604D01*
X125663075Y-131443563D01*
X126176105Y-130034024D01*
X128055491Y-130718065D01*
G37*
G36*
X130518036Y-123952278D02*
G01*
X130005006Y-125361817D01*
X128125620Y-124677776D01*
X128638650Y-123268237D01*
X130518036Y-123952278D01*
G37*
G36*
X131270481Y-121884954D02*
G01*
X130757451Y-123294493D01*
X128878065Y-122610452D01*
X129391095Y-121200913D01*
X131270481Y-121884954D01*
G37*
G36*
X134633339Y-133112206D02*
G01*
X134120309Y-134521745D01*
X132240923Y-133837704D01*
X132753953Y-132428165D01*
X134633339Y-133112206D01*
G37*
G36*
X135796208Y-129917251D02*
G01*
X135283178Y-131326790D01*
X133403792Y-130642749D01*
X133916822Y-129233210D01*
X135796208Y-129917251D01*
G37*
G36*
X137677319Y-124748941D02*
G01*
X137164289Y-126158480D01*
X135284903Y-125474439D01*
X135797933Y-124064900D01*
X137677319Y-124748941D01*
G37*
%TD*%
%TO.C,J4*%
G36*
X155931749Y-132496836D02*
G01*
X156444779Y-133906375D01*
X154565393Y-134590416D01*
X154052363Y-133180877D01*
X155931749Y-132496836D01*
G37*
G36*
X153469203Y-125731049D02*
G01*
X153982233Y-127140588D01*
X152102847Y-127824629D01*
X151589817Y-126415090D01*
X153469203Y-125731049D01*
G37*
G36*
X152716759Y-123663725D02*
G01*
X153229789Y-125073264D01*
X151350403Y-125757305D01*
X150837373Y-124347766D01*
X152716759Y-123663725D01*
G37*
G36*
X162509597Y-130102695D02*
G01*
X163022627Y-131512234D01*
X161143241Y-132196275D01*
X160630211Y-130786736D01*
X162509597Y-130102695D01*
G37*
G36*
X161346728Y-126907740D02*
G01*
X161859758Y-128317279D01*
X159980372Y-129001320D01*
X159467342Y-127591781D01*
X161346728Y-126907740D01*
G37*
G36*
X159465618Y-121739430D02*
G01*
X159978648Y-123148969D01*
X158099262Y-123833010D01*
X157586232Y-122423471D01*
X159465618Y-121739430D01*
G37*
%TD*%
%TO.C,J3*%
G36*
X178500800Y-115780064D02*
G01*
X179799838Y-116530064D01*
X178799838Y-118262114D01*
X177500800Y-117512114D01*
X178500800Y-115780064D01*
G37*
G36*
X172265417Y-112180064D02*
G01*
X173564455Y-112930064D01*
X172564455Y-114662114D01*
X171265417Y-113912114D01*
X172265417Y-112180064D01*
G37*
G36*
X170360162Y-111080064D02*
G01*
X171659200Y-111830064D01*
X170659200Y-113562114D01*
X169360162Y-112812114D01*
X170360162Y-111080064D01*
G37*
G36*
X182000800Y-109717886D02*
G01*
X183299838Y-110467886D01*
X182299838Y-112199936D01*
X181000800Y-111449936D01*
X182000800Y-109717886D01*
G37*
G36*
X179056314Y-108017886D02*
G01*
X180355352Y-108767886D01*
X179355352Y-110499936D01*
X178056314Y-109749936D01*
X179056314Y-108017886D01*
G37*
G36*
X174293174Y-105267886D02*
G01*
X175592212Y-106017886D01*
X174592212Y-107749936D01*
X173293174Y-106999936D01*
X174293174Y-105267886D01*
G37*
%TD*%
%TO.C,J2*%
G36*
X185004111Y-88606109D02*
G01*
X186481323Y-88345637D01*
X186828619Y-90315253D01*
X185351407Y-90575725D01*
X185004111Y-88606109D01*
G37*
G36*
X177913495Y-89856376D02*
G01*
X179390707Y-89595904D01*
X179738003Y-91565520D01*
X178260791Y-91825992D01*
X177913495Y-89856376D01*
G37*
G36*
X175746918Y-90238402D02*
G01*
X177224130Y-89977930D01*
X177571426Y-91947546D01*
X176094214Y-92208018D01*
X175746918Y-90238402D01*
G37*
G36*
X183788574Y-81712454D02*
G01*
X185265786Y-81451982D01*
X185613082Y-83421598D01*
X184135870Y-83682070D01*
X183788574Y-81712454D01*
G37*
G36*
X180440227Y-82302858D02*
G01*
X181917439Y-82042386D01*
X182264735Y-84012002D01*
X180787523Y-84272474D01*
X180440227Y-82302858D01*
G37*
G36*
X175023785Y-83257923D02*
G01*
X176500997Y-82997451D01*
X176848293Y-84967067D01*
X175371081Y-85227539D01*
X175023785Y-83257923D01*
G37*
%TD*%
%TO.C,J1*%
G36*
X172444122Y-63491094D02*
G01*
X173408303Y-62342027D01*
X174940392Y-63627602D01*
X173976211Y-64776669D01*
X172444122Y-63491094D01*
G37*
G36*
X167816052Y-69006614D02*
G01*
X168780233Y-67857547D01*
X170312322Y-69143122D01*
X169348141Y-70292189D01*
X167816052Y-69006614D01*
G37*
G36*
X166401919Y-70691912D02*
G01*
X167366100Y-69542845D01*
X168898189Y-70828420D01*
X167934008Y-71977487D01*
X166401919Y-70691912D01*
G37*
G36*
X167081811Y-58991580D02*
G01*
X168045992Y-57842513D01*
X169578081Y-59128088D01*
X168613900Y-60277155D01*
X167081811Y-58991580D01*
G37*
G36*
X164896333Y-61596132D02*
G01*
X165860514Y-60447065D01*
X167392603Y-61732640D01*
X166428422Y-62881707D01*
X164896333Y-61596132D01*
G37*
G36*
X161361001Y-65809376D02*
G01*
X162325182Y-64660309D01*
X163857271Y-65945884D01*
X162893090Y-67094951D01*
X161361001Y-65809376D01*
G37*
%TD*%
%TO.C,D10*%
G36*
G01*
X144830000Y-70966250D02*
X144830000Y-70053750D01*
G75*
G02*
X145073750Y-69810000I243750J0D01*
G01*
X145561250Y-69810000D01*
G75*
G02*
X145805000Y-70053750I0J-243750D01*
G01*
X145805000Y-70966250D01*
G75*
G02*
X145561250Y-71210000I-243750J0D01*
G01*
X145073750Y-71210000D01*
G75*
G02*
X144830000Y-70966250I0J243750D01*
G01*
G37*
G36*
G01*
X142955000Y-70966250D02*
X142955000Y-70053750D01*
G75*
G02*
X143198750Y-69810000I243750J0D01*
G01*
X143686250Y-69810000D01*
G75*
G02*
X143930000Y-70053750I0J-243750D01*
G01*
X143930000Y-70966250D01*
G75*
G02*
X143686250Y-71210000I-243750J0D01*
G01*
X143198750Y-71210000D01*
G75*
G02*
X142955000Y-70966250I0J243750D01*
G01*
G37*
%TD*%
M02*
